<svg width="316" height="163" viewBox="0 0 316 163" fill="none" xmlns="http://www.w3.org/2000/svg">
<rect width="315.197" height="163.004" fill="#0A192F"/>
<path d="M265.197 50V65.4H261.611L254.813 57.194V65.4H250.545V50H254.131L260.929 58.206V50H265.197Z" fill="#CCD6F6"/>
<path d="M242.21 50H246.566V65.4H242.21V50Z" fill="#CCD6F6"/>
<path d="M238.257 50V65.4H234.671L227.873 57.194V65.4H223.605V50H227.191L233.989 58.206V50H238.257Z" fill="#CCD6F6"/>
<path d="M215.748 62.408H209.236L208.026 65.4H203.582L210.38 50H214.67L221.49 65.4H216.958L215.748 62.408ZM214.472 59.196L212.492 54.268L210.512 59.196H214.472Z" fill="#CCD6F6"/>
<path d="M198.513 59.878V65.4H194.157V59.812L188.283 50H192.881L196.533 56.116L200.185 50H204.409L198.513 59.878Z" fill="#CCD6F6"/>
<path d="M180.045 61.308H177.669V65.4H173.313V50H180.353C181.746 50 182.956 50.2347 183.983 50.704C185.01 51.1587 185.802 51.8187 186.359 52.684C186.916 53.5347 187.195 54.5393 187.195 55.698C187.195 56.8127 186.931 57.788 186.403 58.624C185.89 59.4453 185.149 60.0907 184.181 60.56L187.503 65.4H182.839L180.045 61.308ZM182.795 55.698C182.795 54.9793 182.568 54.422 182.113 54.026C181.658 53.63 180.984 53.432 180.089 53.432H177.669V57.942H180.089C180.984 57.942 181.658 57.7513 182.113 57.37C182.568 56.974 182.795 56.4167 182.795 55.698Z" fill="#CCD6F6"/>
<path d="M161.83 59.812L160.202 61.55V65.4H155.89V50H160.202V56.402L166.164 50H170.96L164.668 56.82L171.29 65.4H166.23L161.83 59.812Z" fill="#CCD6F6"/>
<path d="M140.724 59.878V65.4H136.368V59.812L130.494 50H135.092L138.744 56.116L142.396 50H146.62L140.724 59.878Z" fill="#CCD6F6"/>
<path d="M124.139 50H128.495V65.4H124.139V50Z" fill="#CCD6F6"/>
<path d="M109.831 50H114.187V61.946H121.535V65.4H109.831V50Z" fill="#CCD6F6"/>
<path d="M101.974 62.408H95.4619L94.2519 65.4H89.8079L96.6059 50H100.896L107.716 65.4H103.184L101.974 62.408ZM100.698 59.196L98.7179 54.268L96.7379 59.196H100.698Z" fill="#CCD6F6"/>
<path d="M80.8626 53.454H76.1326V50H89.9266V53.454H85.2186V65.4H80.8626V53.454Z" fill="#CCD6F6"/>
<path d="M69.2495 50H73.6055V65.4H69.2495V50Z" fill="#CCD6F6"/>
<path d="M67.468 50L60.868 65.4H56.578L50 50H54.708L58.888 60.032L63.156 50H67.468Z" fill="#CCD6F6"/>
<path d="M265.001 79.85V84.47L250.211 89.93V85.55L259.781 82.16L250.211 78.77V74.39L265.001 79.85Z" fill="#64FFDA"/>
<path d="M243.16 67.4H248.23L238.33 95.66H233.26L243.16 67.4Z" fill="#64FFDA"/>
<path d="M227.903 81.71C229.103 82.13 230.043 82.79 230.723 83.69C231.403 84.57 231.743 85.64 231.743 86.9C231.743 88.74 231.003 90.16 229.523 91.16C228.043 92.16 225.903 92.66 223.103 92.66H211.763V71.66H222.503C225.183 71.66 227.223 72.16 228.623 73.16C230.023 74.14 230.723 75.47 230.723 77.15C230.723 78.15 230.473 79.05 229.973 79.85C229.493 80.63 228.803 81.25 227.903 81.71ZM217.643 75.95V80H221.723C223.723 80 224.723 79.32 224.723 77.96C224.723 76.62 223.723 75.95 221.723 75.95H217.643ZM222.623 88.37C224.703 88.37 225.743 87.66 225.743 86.24C225.743 84.82 224.703 84.11 222.623 84.11H217.643V88.37H222.623Z" fill="#64FFDA"/>
<path d="M206.817 88.07V92.66H189.957V71.66H206.427V76.25H195.837V79.79H205.167V84.23H195.837V88.07H206.817Z" fill="#64FFDA"/>
<path d="M186.179 71.66L179.369 92.66H173.009L168.989 79.88L164.789 92.66H158.429L151.619 71.66H157.739L161.969 85.07L166.409 71.66H171.869L176.099 85.19L180.509 71.66H186.179Z" fill="#64FFDA"/>
<path d="M139.54 71.66L130.54 92.66H124.69L115.72 71.66H122.14L127.84 85.34L133.66 71.66H139.54Z" fill="#64FFDA"/>
<path d="M113.586 88.07V92.66H96.7263V71.66H113.196V76.25H102.606V79.79H111.936V84.23H102.606V88.07H113.586Z" fill="#64FFDA"/>
<path d="M70.2913 71.66H80.2213C82.5213 71.66 84.5613 72.09 86.3413 72.95C88.1213 73.81 89.5013 75.03 90.4813 76.61C91.4613 78.19 91.9513 80.04 91.9513 82.16C91.9513 84.28 91.4613 86.13 90.4813 87.71C89.5013 89.29 88.1213 90.51 86.3413 91.37C84.5613 92.23 82.5213 92.66 80.2213 92.66H70.2913V71.66ZM79.9813 87.92C81.7813 87.92 83.2213 87.41 84.3013 86.39C85.4013 85.37 85.9513 83.96 85.9513 82.16C85.9513 80.36 85.4013 78.95 84.3013 77.93C83.2213 76.91 81.7813 76.4 79.9813 76.4H76.2313V87.92H79.9813Z" fill="#64FFDA"/>
<path d="M64.79 78.77L55.22 82.16L64.79 85.55V89.93L50 84.47V79.85L64.79 74.39V78.77Z" fill="#64FFDA"/>
<path d="M264.076 101.292V109.772H262.62V108.492C262.31 108.929 261.9 109.271 261.388 109.516C260.886 109.751 260.337 109.868 259.74 109.868C258.609 109.868 257.718 109.559 257.068 108.94C256.417 108.311 256.092 107.388 256.092 106.172V101.292H257.628V105.996C257.628 106.817 257.825 107.441 258.22 107.868C258.614 108.284 259.18 108.492 259.916 108.492C260.726 108.492 261.366 108.247 261.836 107.756C262.305 107.265 262.54 106.572 262.54 105.676V101.292H264.076Z" fill="#CCD6F6"/>
<path d="M249.081 102.716C249.348 102.225 249.743 101.852 250.265 101.596C250.788 101.34 251.423 101.212 252.169 101.212V102.7C252.084 102.689 251.967 102.684 251.817 102.684C250.985 102.684 250.329 102.935 249.849 103.436C249.38 103.927 249.145 104.631 249.145 105.548V109.772H247.609V101.292H249.081V102.716Z" fill="#CCD6F6"/>
<path d="M242.352 109.868C242.054 109.868 241.798 109.767 241.584 109.564C241.371 109.351 241.264 109.084 241.264 108.764C241.264 108.455 241.371 108.199 241.584 107.996C241.798 107.783 242.054 107.676 242.352 107.676C242.651 107.676 242.902 107.777 243.104 107.98C243.307 108.183 243.408 108.444 243.408 108.764C243.408 109.084 243.302 109.351 243.088 109.564C242.886 109.767 242.64 109.868 242.352 109.868Z" fill="#CCD6F6"/>
<path d="M237.971 109.276C237.747 109.468 237.47 109.617 237.139 109.724C236.808 109.82 236.467 109.868 236.115 109.868C235.262 109.868 234.6 109.639 234.131 109.18C233.662 108.721 233.427 108.065 233.427 107.212V102.556H231.987V101.292H233.427V99.436H234.963V101.292H237.395V102.556H234.963V107.148C234.963 107.607 235.075 107.959 235.299 108.204C235.534 108.449 235.864 108.572 236.291 108.572C236.76 108.572 237.16 108.439 237.491 108.172L237.971 109.276Z" fill="#CCD6F6"/>
<path d="M229.07 105.58C229.07 105.697 229.06 105.852 229.038 106.044H222.158C222.254 106.791 222.58 107.393 223.134 107.852C223.7 108.3 224.398 108.524 225.23 108.524C226.244 108.524 227.06 108.183 227.678 107.5L228.526 108.492C228.142 108.94 227.662 109.281 227.086 109.516C226.521 109.751 225.886 109.868 225.182 109.868C224.286 109.868 223.492 109.687 222.798 109.324C222.105 108.951 221.566 108.433 221.182 107.772C220.809 107.111 220.622 106.364 220.622 105.532C220.622 104.711 220.804 103.969 221.166 103.308C221.54 102.647 222.046 102.135 222.686 101.772C223.337 101.399 224.068 101.212 224.878 101.212C225.689 101.212 226.409 101.399 227.038 101.772C227.678 102.135 228.174 102.647 228.526 103.308C228.889 103.969 229.07 104.727 229.07 105.58ZM224.878 102.508C224.142 102.508 223.524 102.732 223.022 103.18C222.532 103.628 222.244 104.215 222.158 104.94H227.598C227.513 104.225 227.22 103.644 226.718 103.196C226.228 102.737 225.614 102.508 224.878 102.508Z" fill="#CCD6F6"/>
<path d="M212.997 101.212C214.074 101.212 214.927 101.527 215.557 102.156C216.197 102.775 216.517 103.687 216.517 104.892V109.772H214.981V105.068C214.981 104.247 214.783 103.628 214.389 103.212C213.994 102.796 213.429 102.588 212.693 102.588C211.861 102.588 211.205 102.833 210.725 103.324C210.245 103.804 210.005 104.497 210.005 105.404V109.772H208.469V101.292H209.941V102.572C210.25 102.135 210.666 101.799 211.189 101.564C211.722 101.329 212.325 101.212 212.997 101.212Z" fill="#CCD6F6"/>
<path d="M201.488 102.716C201.754 102.225 202.149 101.852 202.672 101.596C203.194 101.34 203.829 101.212 204.576 101.212V102.7C204.49 102.689 204.373 102.684 204.224 102.684C203.392 102.684 202.736 102.935 202.256 103.436C201.786 103.927 201.552 104.631 201.552 105.548V109.772H200.016V101.292H201.488V102.716Z" fill="#CCD6F6"/>
<path d="M195.883 105.58C195.883 105.697 195.872 105.852 195.851 106.044H188.971C189.067 106.791 189.392 107.393 189.947 107.852C190.512 108.3 191.211 108.524 192.043 108.524C193.056 108.524 193.872 108.183 194.491 107.5L195.339 108.492C194.955 108.94 194.475 109.281 193.899 109.516C193.333 109.751 192.699 109.868 191.995 109.868C191.099 109.868 190.304 109.687 189.611 109.324C188.917 108.951 188.379 108.433 187.995 107.772C187.621 107.111 187.435 106.364 187.435 105.532C187.435 104.711 187.616 103.969 187.979 103.308C188.352 102.647 188.859 102.135 189.499 101.772C190.149 101.399 190.88 101.212 191.691 101.212C192.501 101.212 193.221 101.399 193.851 101.772C194.491 102.135 194.987 102.647 195.339 103.308C195.701 103.969 195.883 104.727 195.883 105.58ZM191.691 102.508C190.955 102.508 190.336 102.732 189.835 103.18C189.344 103.628 189.056 104.215 188.971 104.94H194.411C194.325 104.225 194.032 103.644 193.531 103.196C193.04 102.737 192.427 102.508 191.691 102.508Z" fill="#CCD6F6"/>
<path d="M184.643 109.276C184.419 109.468 184.142 109.617 183.811 109.724C183.48 109.82 183.139 109.868 182.787 109.868C181.934 109.868 181.272 109.639 180.803 109.18C180.334 108.721 180.099 108.065 180.099 107.212V102.556H178.659V101.292H180.099V99.436H181.635V101.292H184.067V102.556H181.635V107.148C181.635 107.607 181.747 107.959 181.971 108.204C182.206 108.449 182.536 108.572 182.963 108.572C183.432 108.572 183.832 108.439 184.163 108.172L184.643 109.276Z" fill="#CCD6F6"/>
<path d="M171.512 101.212C172.59 101.212 173.443 101.527 174.072 102.156C174.712 102.775 175.032 103.687 175.032 104.892V109.772H173.496V105.068C173.496 104.247 173.299 103.628 172.904 103.212C172.51 102.796 171.944 102.588 171.208 102.588C170.376 102.588 169.72 102.833 169.24 103.324C168.76 103.804 168.52 104.497 168.52 105.404V109.772H166.984V101.292H168.456V102.572C168.766 102.135 169.182 101.799 169.704 101.564C170.238 101.329 170.84 101.212 171.512 101.212Z" fill="#CCD6F6"/>
<path d="M160.516 101.292H162.052V109.772H160.516V101.292ZM161.284 99.66C160.985 99.66 160.734 99.564 160.532 99.372C160.34 99.18 160.244 98.9454 160.244 98.668C160.244 98.3907 160.34 98.156 160.532 97.964C160.734 97.7614 160.985 97.66 161.284 97.66C161.582 97.66 161.828 97.756 162.02 97.948C162.222 98.1294 162.324 98.3587 162.324 98.636C162.324 98.924 162.222 99.1694 162.02 99.372C161.828 99.564 161.582 99.66 161.284 99.66Z" fill="#CCD6F6"/>
<path d="M148.833 98.46C150.273 98.46 151.558 98.7587 152.689 99.356C153.819 99.9427 154.699 100.769 155.329 101.836C155.969 102.903 156.289 104.119 156.289 105.484C156.289 106.849 156.038 107.921 155.537 108.7C155.035 109.479 154.337 109.868 153.441 109.868C152.929 109.868 152.502 109.74 152.161 109.484C151.83 109.217 151.617 108.839 151.521 108.348C151.201 108.839 150.779 109.217 150.257 109.484C149.745 109.74 149.153 109.868 148.481 109.868C147.734 109.868 147.062 109.692 146.465 109.34C145.867 108.988 145.398 108.503 145.057 107.884C144.726 107.255 144.561 106.545 144.561 105.756C144.561 104.977 144.726 104.279 145.057 103.66C145.398 103.031 145.867 102.545 146.465 102.204C147.062 101.852 147.734 101.676 148.481 101.676C149.099 101.676 149.659 101.793 150.161 102.028C150.662 102.252 151.078 102.588 151.409 103.036V101.74H152.801V107.5C152.801 107.895 152.886 108.188 153.057 108.38C153.227 108.561 153.446 108.652 153.713 108.652C154.182 108.652 154.545 108.38 154.801 107.836C155.067 107.281 155.201 106.503 155.201 105.5C155.201 104.316 154.934 103.276 154.401 102.38C153.867 101.473 153.115 100.769 152.145 100.268C151.185 99.7667 150.081 99.516 148.833 99.516C147.574 99.516 146.459 99.7774 145.489 100.3C144.529 100.823 143.782 101.553 143.249 102.492C142.715 103.431 142.449 104.503 142.449 105.708C142.449 106.924 142.71 108.001 143.233 108.94C143.766 109.879 144.507 110.609 145.457 111.132C146.417 111.665 147.521 111.932 148.769 111.932C149.291 111.932 149.825 111.873 150.369 111.756C150.913 111.639 151.409 111.463 151.857 111.228L152.209 112.252C151.739 112.497 151.195 112.684 150.577 112.812C149.958 112.94 149.355 113.004 148.769 113.004C147.307 113.004 146.006 112.689 144.865 112.06C143.734 111.441 142.854 110.577 142.225 109.468C141.595 108.359 141.281 107.105 141.281 105.708C141.281 104.311 141.595 103.063 142.225 101.964C142.865 100.865 143.755 100.007 144.897 99.388C146.049 98.7694 147.361 98.46 148.833 98.46ZM148.705 108.62C149.227 108.62 149.691 108.503 150.097 108.268C150.513 108.033 150.838 107.703 151.073 107.276C151.318 106.839 151.441 106.332 151.441 105.756C151.441 105.18 151.318 104.679 151.073 104.252C150.838 103.815 150.513 103.484 150.097 103.26C149.691 103.025 149.227 102.908 148.705 102.908C147.894 102.908 147.238 103.169 146.737 103.692C146.235 104.204 145.985 104.892 145.985 105.756C145.985 106.62 146.235 107.313 146.737 107.836C147.249 108.359 147.905 108.62 148.705 108.62Z" fill="#CCD6F6"/>
<path d="M138.645 101.292L134.933 109.772H133.365L129.653 101.292H131.253L134.165 108.092L137.141 101.292H138.645Z" fill="#CCD6F6"/>
<path d="M127.832 101.292L124.12 109.772H122.552L118.84 101.292H120.44L123.352 108.092L126.328 101.292H127.832Z" fill="#CCD6F6"/>
<path d="M112.122 101.212C113.199 101.212 114.052 101.527 114.682 102.156C115.322 102.775 115.642 103.687 115.642 104.892V109.772H114.106V105.068C114.106 104.247 113.908 103.628 113.514 103.212C113.119 102.796 112.554 102.588 111.818 102.588C110.986 102.588 110.33 102.833 109.85 103.324C109.37 103.804 109.13 104.497 109.13 105.404V109.772H107.594V101.292H109.066V102.572C109.375 102.135 109.791 101.799 110.314 101.564C110.847 101.329 111.45 101.212 112.122 101.212Z" fill="#CCD6F6"/>
<path d="M101.125 101.292H102.661V109.772H101.125V101.292ZM101.893 99.66C101.594 99.66 101.344 99.564 101.141 99.372C100.949 99.18 100.853 98.9454 100.853 98.668C100.853 98.3907 100.949 98.156 101.141 97.964C101.344 97.7614 101.594 97.66 101.893 97.66C102.192 97.66 102.437 97.756 102.629 97.948C102.832 98.1294 102.933 98.3587 102.933 98.636C102.933 98.924 102.832 99.1694 102.629 99.372C102.437 99.564 102.192 99.66 101.893 99.66Z" fill="#CCD6F6"/>
<path d="M92.7624 101.212C93.8397 101.212 94.693 101.527 95.3224 102.156C95.9624 102.775 96.2824 103.687 96.2824 104.892V109.772H94.7464V105.068C94.7464 104.247 94.549 103.628 94.1544 103.212C93.7597 102.796 93.1944 102.588 92.4584 102.588C91.6264 102.588 90.9704 102.833 90.4904 103.324C90.0104 103.804 89.7704 104.497 89.7704 105.404V109.772H88.2344V101.292H89.7064V102.572C90.0157 102.135 90.4317 101.799 90.9544 101.564C91.4877 101.329 92.0904 101.212 92.7624 101.212Z" fill="#CCD6F6"/>
<path d="M79.7599 101.212C80.9332 101.212 81.8292 101.5 82.4479 102.076C83.0772 102.652 83.3919 103.511 83.3919 104.652V109.772H81.9359V108.652C81.6799 109.047 81.3119 109.351 80.8319 109.564C80.3625 109.767 79.8025 109.868 79.1519 109.868C78.2025 109.868 77.4399 109.639 76.8639 109.18C76.2985 108.721 76.0159 108.119 76.0159 107.372C76.0159 106.625 76.2879 106.028 76.8319 105.58C77.3759 105.121 78.2399 104.892 79.4239 104.892H81.8559V104.588C81.8559 103.927 81.6639 103.42 81.2799 103.068C80.8959 102.716 80.3305 102.54 79.5839 102.54C79.0825 102.54 78.5919 102.625 78.1119 102.796C77.6319 102.956 77.2265 103.175 76.8959 103.452L76.2559 102.3C76.6932 101.948 77.2159 101.681 77.8239 101.5C78.4319 101.308 79.0772 101.212 79.7599 101.212ZM79.4079 108.684C79.9945 108.684 80.5012 108.556 80.9279 108.3C81.3545 108.033 81.6639 107.66 81.8559 107.18V105.996H79.4879C78.1865 105.996 77.5359 106.433 77.5359 107.308C77.5359 107.735 77.7012 108.071 78.0319 108.316C78.3625 108.561 78.8212 108.684 79.4079 108.684Z" fill="#CCD6F6"/>
<path d="M70.2032 101.292H71.7392V109.772H70.2032V101.292ZM70.9712 99.66C70.6725 99.66 70.4218 99.564 70.2192 99.372C70.0272 99.18 69.9312 98.9454 69.9312 98.668C69.9312 98.3907 70.0272 98.156 70.2192 97.964C70.4218 97.7614 70.6725 97.66 70.9712 97.66C71.2698 97.66 71.5152 97.756 71.7072 97.948C71.9098 98.1294 72.0112 98.3587 72.0112 98.636C72.0112 98.924 71.9098 99.1694 71.7072 99.372C71.5152 99.564 71.2698 99.66 70.9712 99.66Z" fill="#CCD6F6"/>
<path d="M63.222 102.716C63.4887 102.225 63.8833 101.852 64.406 101.596C64.9287 101.34 65.5633 101.212 66.31 101.212V102.7C66.2247 102.689 66.1073 102.684 65.958 102.684C65.126 102.684 64.47 102.935 63.99 103.436C63.5207 103.927 63.286 104.631 63.286 105.548V109.772H61.75V101.292H63.222V102.716Z" fill="#CCD6F6"/>
<path d="M53.296 105.82L51.536 107.452V109.772H50V97.9H51.536V105.516L56.16 101.292H58.016L54.448 104.796L58.368 109.772H56.48L53.296 105.82Z" fill="#CCD6F6"/>
</svg>
