<svg width="45" height="45" viewBox="0 0 45 45" fill="none" xmlns="http://www.w3.org/2000/svg">
<g clip-path="url(#clip0_4_140)">
<g filter="url(#filter0_i_4_140)">
<path d="M13.8168 6.97861V21.369C8.19481 26.2059 2.00106 27.9144 0 21.8262V6.97861C0 3.12834 3.09688 0 6.90842 0C8.81419 0 10.5532 0.770053 11.792 2.04545C13.0545 3.29679 13.8168 5.05348 13.8168 6.97861Z" fill="#131E32"/>
</g>
<path d="M43.0466 2.45454C40.3785 -0.312841 36.0191 -0.360969 33.2795 2.33422L15.4367 19.877L13.8168 21.369C8.19481 26.2059 2.00106 27.9144 0 21.8262V38.0214C0 38.1176 0 38.1898 0 38.2861C0 38.3342 0 38.3583 0 38.4064C0 38.4786 0 38.5508 0.0238221 38.623C0.0238221 38.6711 0.0238221 38.6952 0.0476443 38.7433C0.0476443 38.8155 0.0714664 38.8877 0.0714664 38.9599C0.0714664 38.984 0.0714664 39.008 0.0714664 39.008C0.0714664 39.0802 0.0952885 39.1283 0.0952885 39.2005C0.119111 39.3209 0.142933 39.4652 0.166755 39.5856C0.166755 39.6096 0.190577 39.6577 0.190577 39.6818C0.262043 39.9465 0.33351 40.2112 0.428798 40.4759C0.45262 40.5481 0.476443 40.6203 0.524087 40.6925C0.524087 40.7166 0.547909 40.7647 0.571731 40.7888C0.595553 40.861 0.619375 40.9091 0.66702 40.9813C0.690842 41.0294 0.690842 41.0535 0.714664 41.1016C0.738486 41.1738 0.78613 41.2219 0.809952 41.2941C0.833775 41.3182 0.833775 41.3663 0.857597 41.3904C0.881419 41.4385 0.929063 41.5107 0.952885 41.5588C0.976707 41.6069 1.00053 41.6551 1.04817 41.7032C1.09582 41.7754 1.14346 41.8717 1.21493 41.9438C1.26257 42.016 1.31022 42.0882 1.35786 42.1364C1.38168 42.1604 1.38168 42.1845 1.40551 42.2085C1.45315 42.2807 1.50079 42.3289 1.54844 42.4011C1.6199 42.4973 1.69137 42.5695 1.76284 42.6658C1.78666 42.6898 1.81048 42.7139 1.8343 42.738C1.88195 42.7861 1.90577 42.8342 1.95341 42.8583C1.97724 42.8824 2.00106 42.9064 2.00106 42.9064C2.02488 42.9305 2.0487 42.9545 2.07253 42.9786C2.09635 43.0027 2.12017 43.0267 2.16781 43.0508C2.19164 43.0749 2.21546 43.0989 2.23928 43.123C2.33457 43.2192 2.45368 43.3155 2.54897 43.4118C2.59661 43.4599 2.64426 43.484 2.6919 43.5321C2.76337 43.6043 2.85866 43.6524 2.93012 43.7246C2.97777 43.7487 3.02541 43.7727 3.04923 43.8209C3.1207 43.869 3.16834 43.9171 3.23981 43.9412C3.28745 43.9652 3.3351 43.9893 3.38274 44.0374C3.45421 44.0856 3.52568 44.1096 3.59714 44.1578C3.69243 44.2059 3.78772 44.254 3.88301 44.3021C4.00212 44.3503 4.12123 44.4225 4.24034 44.4706C4.28798 44.4946 4.35945 44.5187 4.40709 44.5428C4.88354 44.7112 5.35998 44.8556 5.83642 44.9278C5.95553 44.9519 6.05082 44.9519 6.16993 44.9759C6.26522 44.9759 6.33669 45 6.43197 45C6.4558 45 6.47962 45 6.47962 45C6.52726 45 6.55109 45 6.57491 45C6.64637 45 6.74166 45 6.81313 45C6.90842 45 6.97988 45 7.07517 45C7.09899 45 7.14664 45 7.17046 45C7.24193 45 7.31339 45 7.38486 44.9759C7.4325 44.9759 7.45633 44.9759 7.50397 44.9759C7.57544 44.9759 7.6469 44.9519 7.71837 44.9519C8.36157 44.8556 9.00477 44.6872 9.62414 44.3984C9.64796 44.3984 9.64796 44.3984 9.67178 44.3743C9.79089 44.3262 9.93383 44.254 10.0529 44.1818C10.1006 44.1578 10.172 44.1096 10.2197 44.0856C10.2435 44.0615 10.2912 44.0374 10.315 44.0374C10.3864 43.9893 10.4579 43.9412 10.5532 43.893C10.6485 43.8449 10.72 43.7727 10.8152 43.7246C10.9105 43.6524 11.0058 43.6043 11.0773 43.5321C11.1011 43.5321 11.1249 43.508 11.1249 43.484C11.2917 43.3396 11.4584 43.1952 11.6252 43.0508L11.6967 42.9786L42.9037 12.3208C44.2853 10.9492 45 9.14438 45 7.3155C45 5.58288 44.3568 3.8262 43.0466 2.45454Z" fill="#A8B2D1"/>
<path d="M37.639 45C41.4544 45 44.5474 41.8756 44.5474 38.0214C44.5474 34.1672 41.4544 31.0428 37.639 31.0428C33.8235 31.0428 30.7305 34.1672 30.7305 38.0214C30.7305 41.8756 33.8235 45 37.639 45Z" fill="#131E32"/>
</g>
<defs>
<filter id="filter0_i_4_140" x="0" y="-4" width="13.8168" height="29.7342" filterUnits="userSpaceOnUse" color-interpolation-filters="sRGB">
<feFlood flood-opacity="0" result="BackgroundImageFix"/>
<feBlend mode="normal" in="SourceGraphic" in2="BackgroundImageFix" result="shape"/>
<feColorMatrix in="SourceAlpha" type="matrix" values="0 0 0 0 0 0 0 0 0 0 0 0 0 0 0 0 0 0 127 0" result="hardAlpha"/>
<feOffset dy="-8"/>
<feGaussianBlur stdDeviation="2"/>
<feComposite in2="hardAlpha" operator="arithmetic" k2="-1" k3="1"/>
<feColorMatrix type="matrix" values="0 0 0 0 0.0875 0 0 0 0 0.0875 0 0 0 0 0.0875 0 0 0 0.25 0"/>
<feBlend mode="normal" in2="shape" result="effect1_innerShadow_4_140"/>
</filter>
<clipPath id="clip0_4_140">
<rect width="45" height="45" fill="white"/>
</clipPath>
</defs>
</svg>
