<?xml version="1.0" standalone="no"?>
<svg xmlns:xlink="http://www.w3.org/1999/xlink" version="1.1" xmlns="http://www.w3.org/2000/svg"
	id="QRCodeGenerate" class="img-fluid mw-75" data-copyright="my-qrcode.net" data-modulecount="33"
	data-defaultsize="350" data-defaultclass="img-fluid mw-75"
	data-text="https://www.instagram.com/sooooooooooooooqa" data-color="rgb(0, 0, 0)"
	data-backcolor="none" data-typeicon="square" data-framesize="none" data-framewidth="0"
	data-titlelocation="none" data-titlefont="sans-serif" data-titletext="" data-typenumber="0"
	data-errorcorrectionlevel="Q" data-mode="Byte" data-mb="UTF-8" width="65px" height="65px"
	x="0px" y="0px" viewBox="0 0 350 350" preserveAspectRatio="xMinYMin meet">
	<rect width="65" height="65p" fill="#CCD6F6" x="0" y="0" />
	<path
		d="M10,10l10,0 0,10 -10,0 0,-10z M20,10l10,0 0,10 -10,0 0,-10z M30,10l10,0 0,10 -10,0 0,-10z M40,10l10,0 0,10 -10,0 0,-10z M50,10l10,0 0,10 -10,0 0,-10z M60,10l10,0 0,10 -10,0 0,-10z M70,10l10,0 0,10 -10,0 0,-10z M110,10l10,0 0,10 -10,0 0,-10z M140,10l10,0 0,10 -10,0 0,-10z M160,10l10,0 0,10 -10,0 0,-10z M190,10l10,0 0,10 -10,0 0,-10z M200,10l10,0 0,10 -10,0 0,-10z M240,10l10,0 0,10 -10,0 0,-10z M270,10l10,0 0,10 -10,0 0,-10z M280,10l10,0 0,10 -10,0 0,-10z M290,10l10,0 0,10 -10,0 0,-10z M300,10l10,0 0,10 -10,0 0,-10z M310,10l10,0 0,10 -10,0 0,-10z M320,10l10,0 0,10 -10,0 0,-10z M330,10l10,0 0,10 -10,0 0,-10z M10,20l10,0 0,10 -10,0 0,-10z M70,20l10,0 0,10 -10,0 0,-10z M90,20l10,0 0,10 -10,0 0,-10z M140,20l10,0 0,10 -10,0 0,-10z M150,20l10,0 0,10 -10,0 0,-10z M160,20l10,0 0,10 -10,0 0,-10z M170,20l10,0 0,10 -10,0 0,-10z M180,20l10,0 0,10 -10,0 0,-10z M220,20l10,0 0,10 -10,0 0,-10z M230,20l10,0 0,10 -10,0 0,-10z M240,20l10,0 0,10 -10,0 0,-10z M250,20l10,0 0,10 -10,0 0,-10z M270,20l10,0 0,10 -10,0 0,-10z M330,20l10,0 0,10 -10,0 0,-10z M10,30l10,0 0,10 -10,0 0,-10z M30,30l10,0 0,10 -10,0 0,-10z M40,30l10,0 0,10 -10,0 0,-10z M50,30l10,0 0,10 -10,0 0,-10z M70,30l10,0 0,10 -10,0 0,-10z M90,30l10,0 0,10 -10,0 0,-10z M100,30l10,0 0,10 -10,0 0,-10z M110,30l10,0 0,10 -10,0 0,-10z M120,30l10,0 0,10 -10,0 0,-10z M140,30l10,0 0,10 -10,0 0,-10z M150,30l10,0 0,10 -10,0 0,-10z M160,30l10,0 0,10 -10,0 0,-10z M190,30l10,0 0,10 -10,0 0,-10z M200,30l10,0 0,10 -10,0 0,-10z M210,30l10,0 0,10 -10,0 0,-10z M270,30l10,0 0,10 -10,0 0,-10z M290,30l10,0 0,10 -10,0 0,-10z M300,30l10,0 0,10 -10,0 0,-10z M310,30l10,0 0,10 -10,0 0,-10z M330,30l10,0 0,10 -10,0 0,-10z M10,40l10,0 0,10 -10,0 0,-10z M30,40l10,0 0,10 -10,0 0,-10z M40,40l10,0 0,10 -10,0 0,-10z M50,40l10,0 0,10 -10,0 0,-10z M70,40l10,0 0,10 -10,0 0,-10z M110,40l10,0 0,10 -10,0 0,-10z M140,40l10,0 0,10 -10,0 0,-10z M160,40l10,0 0,10 -10,0 0,-10z M190,40l10,0 0,10 -10,0 0,-10z M200,40l10,0 0,10 -10,0 0,-10z M230,40l10,0 0,10 -10,0 0,-10z M240,40l10,0 0,10 -10,0 0,-10z M250,40l10,0 0,10 -10,0 0,-10z M270,40l10,0 0,10 -10,0 0,-10z M290,40l10,0 0,10 -10,0 0,-10z M300,40l10,0 0,10 -10,0 0,-10z M310,40l10,0 0,10 -10,0 0,-10z M330,40l10,0 0,10 -10,0 0,-10z M10,50l10,0 0,10 -10,0 0,-10z M30,50l10,0 0,10 -10,0 0,-10z M40,50l10,0 0,10 -10,0 0,-10z M50,50l10,0 0,10 -10,0 0,-10z M70,50l10,0 0,10 -10,0 0,-10z M110,50l10,0 0,10 -10,0 0,-10z M120,50l10,0 0,10 -10,0 0,-10z M140,50l10,0 0,10 -10,0 0,-10z M160,50l10,0 0,10 -10,0 0,-10z M170,50l10,0 0,10 -10,0 0,-10z M190,50l10,0 0,10 -10,0 0,-10z M220,50l10,0 0,10 -10,0 0,-10z M250,50l10,0 0,10 -10,0 0,-10z M270,50l10,0 0,10 -10,0 0,-10z M290,50l10,0 0,10 -10,0 0,-10z M300,50l10,0 0,10 -10,0 0,-10z M310,50l10,0 0,10 -10,0 0,-10z M330,50l10,0 0,10 -10,0 0,-10z M10,60l10,0 0,10 -10,0 0,-10z M70,60l10,0 0,10 -10,0 0,-10z M100,60l10,0 0,10 -10,0 0,-10z M110,60l10,0 0,10 -10,0 0,-10z M130,60l10,0 0,10 -10,0 0,-10z M160,60l10,0 0,10 -10,0 0,-10z M180,60l10,0 0,10 -10,0 0,-10z M190,60l10,0 0,10 -10,0 0,-10z M220,60l10,0 0,10 -10,0 0,-10z M250,60l10,0 0,10 -10,0 0,-10z M270,60l10,0 0,10 -10,0 0,-10z M330,60l10,0 0,10 -10,0 0,-10z M10,70l10,0 0,10 -10,0 0,-10z M20,70l10,0 0,10 -10,0 0,-10z M30,70l10,0 0,10 -10,0 0,-10z M40,70l10,0 0,10 -10,0 0,-10z M50,70l10,0 0,10 -10,0 0,-10z M60,70l10,0 0,10 -10,0 0,-10z M70,70l10,0 0,10 -10,0 0,-10z M90,70l10,0 0,10 -10,0 0,-10z M110,70l10,0 0,10 -10,0 0,-10z M130,70l10,0 0,10 -10,0 0,-10z M150,70l10,0 0,10 -10,0 0,-10z M170,70l10,0 0,10 -10,0 0,-10z M190,70l10,0 0,10 -10,0 0,-10z M210,70l10,0 0,10 -10,0 0,-10z M230,70l10,0 0,10 -10,0 0,-10z M250,70l10,0 0,10 -10,0 0,-10z M270,70l10,0 0,10 -10,0 0,-10z M280,70l10,0 0,10 -10,0 0,-10z M290,70l10,0 0,10 -10,0 0,-10z M300,70l10,0 0,10 -10,0 0,-10z M310,70l10,0 0,10 -10,0 0,-10z M320,70l10,0 0,10 -10,0 0,-10z M330,70l10,0 0,10 -10,0 0,-10z M160,80l10,0 0,10 -10,0 0,-10z M170,80l10,0 0,10 -10,0 0,-10z M180,80l10,0 0,10 -10,0 0,-10z M200,80l10,0 0,10 -10,0 0,-10z M250,80l10,0 0,10 -10,0 0,-10z M20,90l10,0 0,10 -10,0 0,-10z M30,90l10,0 0,10 -10,0 0,-10z M40,90l10,0 0,10 -10,0 0,-10z M60,90l10,0 0,10 -10,0 0,-10z M70,90l10,0 0,10 -10,0 0,-10z M110,90l10,0 0,10 -10,0 0,-10z M180,90l10,0 0,10 -10,0 0,-10z M190,90l10,0 0,10 -10,0 0,-10z M220,90l10,0 0,10 -10,0 0,-10z M240,90l10,0 0,10 -10,0 0,-10z M310,90l10,0 0,10 -10,0 0,-10z M320,90l10,0 0,10 -10,0 0,-10z M60,100l10,0 0,10 -10,0 0,-10z M90,100l10,0 0,10 -10,0 0,-10z M130,100l10,0 0,10 -10,0 0,-10z M170,100l10,0 0,10 -10,0 0,-10z M180,100l10,0 0,10 -10,0 0,-10z M190,100l10,0 0,10 -10,0 0,-10z M200,100l10,0 0,10 -10,0 0,-10z M210,100l10,0 0,10 -10,0 0,-10z M230,100l10,0 0,10 -10,0 0,-10z M240,100l10,0 0,10 -10,0 0,-10z M270,100l10,0 0,10 -10,0 0,-10z M280,100l10,0 0,10 -10,0 0,-10z M300,100l10,0 0,10 -10,0 0,-10z M310,100l10,0 0,10 -10,0 0,-10z M330,100l10,0 0,10 -10,0 0,-10z M10,110l10,0 0,10 -10,0 0,-10z M30,110l10,0 0,10 -10,0 0,-10z M50,110l10,0 0,10 -10,0 0,-10z M70,110l10,0 0,10 -10,0 0,-10z M100,110l10,0 0,10 -10,0 0,-10z M110,110l10,0 0,10 -10,0 0,-10z M150,110l10,0 0,10 -10,0 0,-10z M170,110l10,0 0,10 -10,0 0,-10z M190,110l10,0 0,10 -10,0 0,-10z M220,110l10,0 0,10 -10,0 0,-10z M230,110l10,0 0,10 -10,0 0,-10z M240,110l10,0 0,10 -10,0 0,-10z M260,110l10,0 0,10 -10,0 0,-10z M280,110l10,0 0,10 -10,0 0,-10z M290,110l10,0 0,10 -10,0 0,-10z M300,110l10,0 0,10 -10,0 0,-10z M330,110l10,0 0,10 -10,0 0,-10z M20,120l10,0 0,10 -10,0 0,-10z M30,120l10,0 0,10 -10,0 0,-10z M50,120l10,0 0,10 -10,0 0,-10z M60,120l10,0 0,10 -10,0 0,-10z M100,120l10,0 0,10 -10,0 0,-10z M110,120l10,0 0,10 -10,0 0,-10z M130,120l10,0 0,10 -10,0 0,-10z M150,120l10,0 0,10 -10,0 0,-10z M160,120l10,0 0,10 -10,0 0,-10z M180,120l10,0 0,10 -10,0 0,-10z M200,120l10,0 0,10 -10,0 0,-10z M240,120l10,0 0,10 -10,0 0,-10z M250,120l10,0 0,10 -10,0 0,-10z M270,120l10,0 0,10 -10,0 0,-10z M280,120l10,0 0,10 -10,0 0,-10z M300,120l10,0 0,10 -10,0 0,-10z M10,130l10,0 0,10 -10,0 0,-10z M20,130l10,0 0,10 -10,0 0,-10z M60,130l10,0 0,10 -10,0 0,-10z M70,130l10,0 0,10 -10,0 0,-10z M120,130l10,0 0,10 -10,0 0,-10z M230,130l10,0 0,10 -10,0 0,-10z M240,130l10,0 0,10 -10,0 0,-10z M250,130l10,0 0,10 -10,0 0,-10z M260,130l10,0 0,10 -10,0 0,-10z M280,130l10,0 0,10 -10,0 0,-10z M290,130l10,0 0,10 -10,0 0,-10z M300,130l10,0 0,10 -10,0 0,-10z M320,130l10,0 0,10 -10,0 0,-10z M330,130l10,0 0,10 -10,0 0,-10z M40,140l10,0 0,10 -10,0 0,-10z M60,140l10,0 0,10 -10,0 0,-10z M80,140l10,0 0,10 -10,0 0,-10z M90,140l10,0 0,10 -10,0 0,-10z M100,140l10,0 0,10 -10,0 0,-10z M110,140l10,0 0,10 -10,0 0,-10z M120,140l10,0 0,10 -10,0 0,-10z M250,140l10,0 0,10 -10,0 0,-10z M280,140l10,0 0,10 -10,0 0,-10z M310,140l10,0 0,10 -10,0 0,-10z M320,140l10,0 0,10 -10,0 0,-10z M10,150l10,0 0,10 -10,0 0,-10z M20,150l10,0 0,10 -10,0 0,-10z M30,150l10,0 0,10 -10,0 0,-10z M50,150l10,0 0,10 -10,0 0,-10z M70,150l10,0 0,10 -10,0 0,-10z M100,150l10,0 0,10 -10,0 0,-10z M110,150l10,0 0,10 -10,0 0,-10z M120,150l10,0 0,10 -10,0 0,-10z M220,150l10,0 0,10 -10,0 0,-10z M230,150l10,0 0,10 -10,0 0,-10z M250,150l10,0 0,10 -10,0 0,-10z M270,150l10,0 0,10 -10,0 0,-10z M280,150l10,0 0,10 -10,0 0,-10z M300,150l10,0 0,10 -10,0 0,-10z M310,150l10,0 0,10 -10,0 0,-10z M30,160l10,0 0,10 -10,0 0,-10z M40,160l10,0 0,10 -10,0 0,-10z M60,160l10,0 0,10 -10,0 0,-10z M80,160l10,0 0,10 -10,0 0,-10z M90,160l10,0 0,10 -10,0 0,-10z M110,160l10,0 0,10 -10,0 0,-10z M120,160l10,0 0,10 -10,0 0,-10z M220,160l10,0 0,10 -10,0 0,-10z M230,160l10,0 0,10 -10,0 0,-10z M240,160l10,0 0,10 -10,0 0,-10z M260,160l10,0 0,10 -10,0 0,-10z M270,160l10,0 0,10 -10,0 0,-10z M290,160l10,0 0,10 -10,0 0,-10z M300,160l10,0 0,10 -10,0 0,-10z M310,160l10,0 0,10 -10,0 0,-10z M10,170l10,0 0,10 -10,0 0,-10z M20,170l10,0 0,10 -10,0 0,-10z M30,170l10,0 0,10 -10,0 0,-10z M40,170l10,0 0,10 -10,0 0,-10z M50,170l10,0 0,10 -10,0 0,-10z M60,170l10,0 0,10 -10,0 0,-10z M70,170l10,0 0,10 -10,0 0,-10z M90,170l10,0 0,10 -10,0 0,-10z M110,170l10,0 0,10 -10,0 0,-10z M220,170l10,0 0,10 -10,0 0,-10z M230,170l10,0 0,10 -10,0 0,-10z M260,170l10,0 0,10 -10,0 0,-10z M270,170l10,0 0,10 -10,0 0,-10z M290,170l10,0 0,10 -10,0 0,-10z M310,170l10,0 0,10 -10,0 0,-10z M10,180l10,0 0,10 -10,0 0,-10z M50,180l10,0 0,10 -10,0 0,-10z M80,180l10,0 0,10 -10,0 0,-10z M90,180l10,0 0,10 -10,0 0,-10z M220,180l10,0 0,10 -10,0 0,-10z M240,180l10,0 0,10 -10,0 0,-10z M270,180l10,0 0,10 -10,0 0,-10z M290,180l10,0 0,10 -10,0 0,-10z M300,180l10,0 0,10 -10,0 0,-10z M320,180l10,0 0,10 -10,0 0,-10z M330,180l10,0 0,10 -10,0 0,-10z M20,190l10,0 0,10 -10,0 0,-10z M40,190l10,0 0,10 -10,0 0,-10z M70,190l10,0 0,10 -10,0 0,-10z M80,190l10,0 0,10 -10,0 0,-10z M110,190l10,0 0,10 -10,0 0,-10z M120,190l10,0 0,10 -10,0 0,-10z M230,190l10,0 0,10 -10,0 0,-10z M260,190l10,0 0,10 -10,0 0,-10z M270,190l10,0 0,10 -10,0 0,-10z M280,190l10,0 0,10 -10,0 0,-10z M290,190l10,0 0,10 -10,0 0,-10z M310,190l10,0 0,10 -10,0 0,-10z M320,190l10,0 0,10 -10,0 0,-10z M10,200l10,0 0,10 -10,0 0,-10z M20,200l10,0 0,10 -10,0 0,-10z M30,200l10,0 0,10 -10,0 0,-10z M50,200l10,0 0,10 -10,0 0,-10z M60,200l10,0 0,10 -10,0 0,-10z M100,200l10,0 0,10 -10,0 0,-10z M110,200l10,0 0,10 -10,0 0,-10z M120,200l10,0 0,10 -10,0 0,-10z M230,200l10,0 0,10 -10,0 0,-10z M250,200l10,0 0,10 -10,0 0,-10z M260,200l10,0 0,10 -10,0 0,-10z M290,200l10,0 0,10 -10,0 0,-10z M320,200l10,0 0,10 -10,0 0,-10z M40,210l10,0 0,10 -10,0 0,-10z M70,210l10,0 0,10 -10,0 0,-10z M220,210l10,0 0,10 -10,0 0,-10z M300,210l10,0 0,10 -10,0 0,-10z M310,210l10,0 0,10 -10,0 0,-10z M330,210l10,0 0,10 -10,0 0,-10z M10,220l10,0 0,10 -10,0 0,-10z M20,220l10,0 0,10 -10,0 0,-10z M80,220l10,0 0,10 -10,0 0,-10z M100,220l10,0 0,10 -10,0 0,-10z M140,220l10,0 0,10 -10,0 0,-10z M150,220l10,0 0,10 -10,0 0,-10z M180,220l10,0 0,10 -10,0 0,-10z M190,220l10,0 0,10 -10,0 0,-10z M200,220l10,0 0,10 -10,0 0,-10z M210,220l10,0 0,10 -10,0 0,-10z M220,220l10,0 0,10 -10,0 0,-10z M240,220l10,0 0,10 -10,0 0,-10z M270,220l10,0 0,10 -10,0 0,-10z M310,220l10,0 0,10 -10,0 0,-10z M330,220l10,0 0,10 -10,0 0,-10z M30,230l10,0 0,10 -10,0 0,-10z M40,230l10,0 0,10 -10,0 0,-10z M70,230l10,0 0,10 -10,0 0,-10z M80,230l10,0 0,10 -10,0 0,-10z M90,230l10,0 0,10 -10,0 0,-10z M120,230l10,0 0,10 -10,0 0,-10z M130,230l10,0 0,10 -10,0 0,-10z M140,230l10,0 0,10 -10,0 0,-10z M150,230l10,0 0,10 -10,0 0,-10z M170,230l10,0 0,10 -10,0 0,-10z M180,230l10,0 0,10 -10,0 0,-10z M190,230l10,0 0,10 -10,0 0,-10z M230,230l10,0 0,10 -10,0 0,-10z M240,230l10,0 0,10 -10,0 0,-10z M250,230l10,0 0,10 -10,0 0,-10z M260,230l10,0 0,10 -10,0 0,-10z M270,230l10,0 0,10 -10,0 0,-10z M280,230l10,0 0,10 -10,0 0,-10z M290,230l10,0 0,10 -10,0 0,-10z M310,230l10,0 0,10 -10,0 0,-10z M320,230l10,0 0,10 -10,0 0,-10z M330,230l10,0 0,10 -10,0 0,-10z M20,240l10,0 0,10 -10,0 0,-10z M30,240l10,0 0,10 -10,0 0,-10z M50,240l10,0 0,10 -10,0 0,-10z M80,240l10,0 0,10 -10,0 0,-10z M130,240l10,0 0,10 -10,0 0,-10z M140,240l10,0 0,10 -10,0 0,-10z M150,240l10,0 0,10 -10,0 0,-10z M170,240l10,0 0,10 -10,0 0,-10z M180,240l10,0 0,10 -10,0 0,-10z M190,240l10,0 0,10 -10,0 0,-10z M200,240l10,0 0,10 -10,0 0,-10z M230,240l10,0 0,10 -10,0 0,-10z M240,240l10,0 0,10 -10,0 0,-10z M250,240l10,0 0,10 -10,0 0,-10z M270,240l10,0 0,10 -10,0 0,-10z M280,240l10,0 0,10 -10,0 0,-10z M300,240l10,0 0,10 -10,0 0,-10z M330,240l10,0 0,10 -10,0 0,-10z M10,250l10,0 0,10 -10,0 0,-10z M40,250l10,0 0,10 -10,0 0,-10z M50,250l10,0 0,10 -10,0 0,-10z M70,250l10,0 0,10 -10,0 0,-10z M110,250l10,0 0,10 -10,0 0,-10z M120,250l10,0 0,10 -10,0 0,-10z M130,250l10,0 0,10 -10,0 0,-10z M210,250l10,0 0,10 -10,0 0,-10z M230,250l10,0 0,10 -10,0 0,-10z M240,250l10,0 0,10 -10,0 0,-10z M250,250l10,0 0,10 -10,0 0,-10z M260,250l10,0 0,10 -10,0 0,-10z M270,250l10,0 0,10 -10,0 0,-10z M280,250l10,0 0,10 -10,0 0,-10z M290,250l10,0 0,10 -10,0 0,-10z M330,250l10,0 0,10 -10,0 0,-10z M90,260l10,0 0,10 -10,0 0,-10z M100,260l10,0 0,10 -10,0 0,-10z M130,260l10,0 0,10 -10,0 0,-10z M140,260l10,0 0,10 -10,0 0,-10z M160,260l10,0 0,10 -10,0 0,-10z M180,260l10,0 0,10 -10,0 0,-10z M190,260l10,0 0,10 -10,0 0,-10z M200,260l10,0 0,10 -10,0 0,-10z M220,260l10,0 0,10 -10,0 0,-10z M250,260l10,0 0,10 -10,0 0,-10z M290,260l10,0 0,10 -10,0 0,-10z M300,260l10,0 0,10 -10,0 0,-10z M10,270l10,0 0,10 -10,0 0,-10z M20,270l10,0 0,10 -10,0 0,-10z M30,270l10,0 0,10 -10,0 0,-10z M40,270l10,0 0,10 -10,0 0,-10z M50,270l10,0 0,10 -10,0 0,-10z M60,270l10,0 0,10 -10,0 0,-10z M70,270l10,0 0,10 -10,0 0,-10z M100,270l10,0 0,10 -10,0 0,-10z M110,270l10,0 0,10 -10,0 0,-10z M120,270l10,0 0,10 -10,0 0,-10z M140,270l10,0 0,10 -10,0 0,-10z M150,270l10,0 0,10 -10,0 0,-10z M200,270l10,0 0,10 -10,0 0,-10z M210,270l10,0 0,10 -10,0 0,-10z M220,270l10,0 0,10 -10,0 0,-10z M240,270l10,0 0,10 -10,0 0,-10z M250,270l10,0 0,10 -10,0 0,-10z M270,270l10,0 0,10 -10,0 0,-10z M290,270l10,0 0,10 -10,0 0,-10z M10,280l10,0 0,10 -10,0 0,-10z M70,280l10,0 0,10 -10,0 0,-10z M90,280l10,0 0,10 -10,0 0,-10z M100,280l10,0 0,10 -10,0 0,-10z M110,280l10,0 0,10 -10,0 0,-10z M130,280l10,0 0,10 -10,0 0,-10z M140,280l10,0 0,10 -10,0 0,-10z M150,280l10,0 0,10 -10,0 0,-10z M160,280l10,0 0,10 -10,0 0,-10z M170,280l10,0 0,10 -10,0 0,-10z M190,280l10,0 0,10 -10,0 0,-10z M200,280l10,0 0,10 -10,0 0,-10z M210,280l10,0 0,10 -10,0 0,-10z M220,280l10,0 0,10 -10,0 0,-10z M230,280l10,0 0,10 -10,0 0,-10z M240,280l10,0 0,10 -10,0 0,-10z M250,280l10,0 0,10 -10,0 0,-10z M290,280l10,0 0,10 -10,0 0,-10z M300,280l10,0 0,10 -10,0 0,-10z M310,280l10,0 0,10 -10,0 0,-10z M320,280l10,0 0,10 -10,0 0,-10z M330,280l10,0 0,10 -10,0 0,-10z M10,290l10,0 0,10 -10,0 0,-10z M30,290l10,0 0,10 -10,0 0,-10z M40,290l10,0 0,10 -10,0 0,-10z M50,290l10,0 0,10 -10,0 0,-10z M70,290l10,0 0,10 -10,0 0,-10z M110,290l10,0 0,10 -10,0 0,-10z M130,290l10,0 0,10 -10,0 0,-10z M140,290l10,0 0,10 -10,0 0,-10z M150,290l10,0 0,10 -10,0 0,-10z M180,290l10,0 0,10 -10,0 0,-10z M220,290l10,0 0,10 -10,0 0,-10z M230,290l10,0 0,10 -10,0 0,-10z M240,290l10,0 0,10 -10,0 0,-10z M250,290l10,0 0,10 -10,0 0,-10z M260,290l10,0 0,10 -10,0 0,-10z M270,290l10,0 0,10 -10,0 0,-10z M280,290l10,0 0,10 -10,0 0,-10z M290,290l10,0 0,10 -10,0 0,-10z M310,290l10,0 0,10 -10,0 0,-10z M330,290l10,0 0,10 -10,0 0,-10z M10,300l10,0 0,10 -10,0 0,-10z M30,300l10,0 0,10 -10,0 0,-10z M40,300l10,0 0,10 -10,0 0,-10z M50,300l10,0 0,10 -10,0 0,-10z M70,300l10,0 0,10 -10,0 0,-10z M90,300l10,0 0,10 -10,0 0,-10z M100,300l10,0 0,10 -10,0 0,-10z M110,300l10,0 0,10 -10,0 0,-10z M140,300l10,0 0,10 -10,0 0,-10z M150,300l10,0 0,10 -10,0 0,-10z M170,300l10,0 0,10 -10,0 0,-10z M210,300l10,0 0,10 -10,0 0,-10z M230,300l10,0 0,10 -10,0 0,-10z M240,300l10,0 0,10 -10,0 0,-10z M250,300l10,0 0,10 -10,0 0,-10z M280,300l10,0 0,10 -10,0 0,-10z M300,300l10,0 0,10 -10,0 0,-10z M310,300l10,0 0,10 -10,0 0,-10z M320,300l10,0 0,10 -10,0 0,-10z M330,300l10,0 0,10 -10,0 0,-10z M10,310l10,0 0,10 -10,0 0,-10z M30,310l10,0 0,10 -10,0 0,-10z M40,310l10,0 0,10 -10,0 0,-10z M50,310l10,0 0,10 -10,0 0,-10z M70,310l10,0 0,10 -10,0 0,-10z M90,310l10,0 0,10 -10,0 0,-10z M100,310l10,0 0,10 -10,0 0,-10z M110,310l10,0 0,10 -10,0 0,-10z M120,310l10,0 0,10 -10,0 0,-10z M130,310l10,0 0,10 -10,0 0,-10z M140,310l10,0 0,10 -10,0 0,-10z M150,310l10,0 0,10 -10,0 0,-10z M160,310l10,0 0,10 -10,0 0,-10z M170,310l10,0 0,10 -10,0 0,-10z M180,310l10,0 0,10 -10,0 0,-10z M210,310l10,0 0,10 -10,0 0,-10z M220,310l10,0 0,10 -10,0 0,-10z M240,310l10,0 0,10 -10,0 0,-10z M250,310l10,0 0,10 -10,0 0,-10z M260,310l10,0 0,10 -10,0 0,-10z M270,310l10,0 0,10 -10,0 0,-10z M280,310l10,0 0,10 -10,0 0,-10z M300,310l10,0 0,10 -10,0 0,-10z M10,320l10,0 0,10 -10,0 0,-10z M70,320l10,0 0,10 -10,0 0,-10z M90,320l10,0 0,10 -10,0 0,-10z M100,320l10,0 0,10 -10,0 0,-10z M130,320l10,0 0,10 -10,0 0,-10z M150,320l10,0 0,10 -10,0 0,-10z M200,320l10,0 0,10 -10,0 0,-10z M230,320l10,0 0,10 -10,0 0,-10z M240,320l10,0 0,10 -10,0 0,-10z M250,320l10,0 0,10 -10,0 0,-10z M260,320l10,0 0,10 -10,0 0,-10z M280,320l10,0 0,10 -10,0 0,-10z M290,320l10,0 0,10 -10,0 0,-10z M330,320l10,0 0,10 -10,0 0,-10z M10,330l10,0 0,10 -10,0 0,-10z M20,330l10,0 0,10 -10,0 0,-10z M30,330l10,0 0,10 -10,0 0,-10z M40,330l10,0 0,10 -10,0 0,-10z M50,330l10,0 0,10 -10,0 0,-10z M60,330l10,0 0,10 -10,0 0,-10z M70,330l10,0 0,10 -10,0 0,-10z M100,330l10,0 0,10 -10,0 0,-10z M120,330l10,0 0,10 -10,0 0,-10z M130,330l10,0 0,10 -10,0 0,-10z M140,330l10,0 0,10 -10,0 0,-10z M150,330l10,0 0,10 -10,0 0,-10z M170,330l10,0 0,10 -10,0 0,-10z M180,330l10,0 0,10 -10,0 0,-10z M190,330l10,0 0,10 -10,0 0,-10z M220,330l10,0 0,10 -10,0 0,-10z M240,330l10,0 0,10 -10,0 0,-10z M270,330l10,0 0,10 -10,0 0,-10z M290,330l10,0 0,10 -10,0 0,-10z M310,330l10,0 0,10 -10,0 0,-10z "
		stroke="transparent" fill="#CCD6F6" />
	<svg version="1.1" xmlns="http://www.w3.org/2000/svg" name="icon" width="65px" height="65px"
		x="140px" y="140px" viewBox="0 0 169.063 169.063" preserveAspectRatio="xMinYMin meet"
		fill='#64FFDA'>
		<g>
			<path
				d="M122.406,0H46.654C20.929,0,0,20.93,0,46.655v75.752c0,25.726,20.929,46.655,46.654,46.655h75.752&#10;&#9;&#9;c25.727,0,46.656-20.93,46.656-46.655V46.655C169.063,20.93,148.133,0,122.406,0z M154.063,122.407&#10;&#9;&#9;c0,17.455-14.201,31.655-31.656,31.655H46.654C29.2,154.063,15,139.862,15,122.407V46.655C15,29.201,29.2,15,46.654,15h75.752&#10;&#9;&#9;c17.455,0,31.656,14.201,31.656,31.655V122.407z" />
			<path
				d="M84.531,40.97c-24.021,0-43.563,19.542-43.563,43.563c0,24.02,19.542,43.561,43.563,43.561s43.563-19.541,43.563-43.561&#10;&#9;&#9;C128.094,60.512,108.552,40.97,84.531,40.97z M84.531,113.093c-15.749,0-28.563-12.812-28.563-28.561&#10;&#9;&#9;c0-15.75,12.813-28.563,28.563-28.563s28.563,12.813,28.563,28.563C113.094,100.281,100.28,113.093,84.531,113.093z" />
			<path
				d="M129.921,28.251c-2.89,0-5.729,1.17-7.77,3.22c-2.051,2.04-3.23,4.88-3.23,7.78c0,2.891,1.18,5.73,3.23,7.78&#10;&#9;&#9;c2.04,2.04,4.88,3.22,7.77,3.22c2.9,0,5.73-1.18,7.78-3.22c2.05-2.05,3.22-4.89,3.22-7.78c0-2.9-1.17-5.74-3.22-7.78&#10;&#9;&#9;C135.661,29.421,132.821,28.251,129.921,28.251z" />
		</g>
		<g>
</g>
		<g>
</g>
		<g>
</g>
		<g>
</g>
		<g>
</g>
		<g>
</g>
		<g>
</g>
		<g>
</g>
		<g>
</g>
		<g>
</g>
		<g>
</g>
		<g>
</g>
		<g>
</g>
		<g>
</g>
		<g>
</g>
	</svg>
</svg>