<svg width="65" height="65" viewBox="0 0 65 65" fill="none" xmlns="http://www.w3.org/2000/svg">
<g id="Group 8">
<g id="Group 6">
<g id="Group 5">
<g id="Group">
<path id="Vector" d="M44.7912 62.8092C44.0582 62.8092 43.4241 62.8092 42.7901 62.8092C42.7307 62.9478 42.6515 63.0667 42.6515 63.1855C42.5524 64.9879 42.5524 64.9879 40.7693 64.9879C40.3136 64.9879 39.8381 64.9681 39.3824 64.9879C38.5899 65.0275 38.1144 64.77 38.0946 63.8787C38.0748 62.9478 38.5701 62.6507 39.4022 62.6705C39.6598 62.6705 39.9173 62.6507 40.2541 62.6309C40.2541 61.9575 40.2541 61.3039 40.2541 60.5908C39.5805 60.5908 38.9465 60.5908 38.3125 60.5908C37.8766 62.7894 37.8766 62.7894 35.618 62.7894C35.0236 62.7894 34.4293 62.7894 33.716 62.7894C33.6962 63.1657 33.6566 63.4826 33.6764 63.7797C33.716 64.6314 33.3396 64.9879 32.5074 64.9879C31.6951 64.9879 31.3583 64.5918 31.3583 63.8391C31.3583 63.0865 31.3583 62.314 31.3583 61.5614C31.3583 60.7889 31.7546 60.4324 32.5471 60.4522C33.399 60.472 34.2708 60.4918 35.1227 60.4324C35.3803 60.4126 35.8161 60.0957 35.8359 59.8976C35.8954 58.6498 35.8756 57.402 35.8756 56.1146C35.4595 56.0948 35.1623 56.0552 34.8849 56.075C34.0726 56.0948 33.6368 55.7383 33.6368 54.9064C33.6368 54.0745 34.033 53.718 34.8651 53.7378C35.6576 53.7576 36.4501 53.718 37.2426 53.7576C37.8568 53.7972 38.1738 53.619 38.1144 52.9455C38.055 52.1137 38.2531 51.5195 39.2833 51.5393C40.3334 51.5591 40.4325 52.2127 40.4325 53.005C40.4325 53.5397 40.4325 54.0547 40.4126 54.5895C40.3928 55.8967 40.2343 56.075 38.9267 56.0948C38.7286 56.0948 38.5305 56.1146 38.2531 56.1344C38.2531 56.8276 38.2531 57.4812 38.2531 58.2735C39.3031 58.2735 40.2938 58.2735 41.2646 58.2735C42.4335 58.2735 42.6118 58.4121 42.592 59.5609C42.5722 60.3334 42.8694 60.571 43.5826 60.4918C43.9393 60.4522 44.2959 60.4918 44.7318 60.4918C44.7318 59.0261 44.7318 57.6199 44.7318 56.2136C44.6922 56.174 44.6327 56.1146 44.5733 56.1146C42.5524 55.9759 42.5524 55.9759 42.5524 53.9161C42.5524 52.8663 42.5524 51.7968 42.5722 50.747C42.592 49.4794 42.6911 49.4002 43.9195 49.3408C44.177 49.3209 44.4346 49.3011 44.7318 49.2813C44.7714 49.0833 44.811 48.9248 44.811 48.7664C44.811 48.2712 44.811 47.7958 44.811 47.2215C44.4346 47.2017 44.0978 47.2017 43.7808 47.162C42.9486 47.063 42.4533 47.2413 42.592 48.2514C42.6911 48.9644 42.275 49.3606 41.542 49.3606C40.7495 49.3606 39.957 49.3606 39.1645 49.3606C38.4116 49.3606 38.0946 48.9644 38.0946 48.2514C38.0946 47.5978 38.0946 46.9244 38.0946 46.2707C38.1144 45.0031 38.2729 44.8645 39.5409 44.8447C39.739 44.8447 39.9371 44.8447 40.2343 44.8447C40.2343 44.1316 40.2343 43.4582 40.2343 42.6263C39.8777 42.6263 39.5211 42.666 39.1843 42.6263C38.4908 42.5471 38.1144 42.765 38.1738 43.5374C38.2531 44.5674 37.7379 44.9437 36.7275 44.9041C35.7567 44.8645 34.7661 44.8843 33.6764 44.8843C33.6764 46.0727 33.6566 47.1224 33.6764 48.1722C33.6962 49.004 33.3594 49.3804 32.5074 49.3804C31.0215 49.3606 29.5356 49.3606 28.0496 49.3804C27.1779 49.4002 26.8807 48.9644 26.8807 48.1524C26.9005 46.7263 26.9203 45.32 26.9005 43.894C26.9005 43.1215 27.0986 42.6462 28.01 42.6065C28.961 42.5669 29.2186 43.0621 29.2384 43.8742C29.2384 44.1713 29.278 44.4485 29.2978 44.7853C29.9714 44.7853 30.5856 44.7853 31.2791 44.7853C31.2791 44.092 31.2791 43.4384 31.2791 42.666C30.9621 42.6462 30.6451 42.6065 30.3281 42.6263C29.5554 42.6462 29.1591 42.3491 29.1393 41.537C29.1195 40.7447 29.4563 40.3684 30.2488 40.408C30.9422 40.4278 31.6357 40.4278 32.3291 40.3882C33.2999 40.3288 33.7754 40.7051 33.6764 41.7153C33.6566 41.9727 33.6962 42.2302 33.7358 42.5471C34.4491 42.5471 35.1227 42.5471 35.7765 42.5471C36.1331 40.4476 36.1331 40.4278 38.3323 40.408C39.422 40.3882 40.5117 40.3882 41.6014 40.4278C42.3146 40.4674 42.6118 40.2496 42.6118 39.4969C42.6118 38.2887 42.81 38.1501 43.9987 38.1303C44.6525 38.1303 45.3262 38.1303 45.98 38.1303C46.713 38.1303 47.0697 38.4868 47.1093 39.2196C47.1291 39.9723 46.7923 40.408 45.9998 40.4476C45.6828 40.4674 45.346 40.4476 44.9299 40.4476C44.9299 41.9133 44.9299 43.2998 44.9299 44.7853C46.3564 44.7853 47.7433 44.7853 49.15 44.7853C49.1896 44.6862 49.249 44.607 49.2689 44.508C49.467 42.9234 49.467 42.9433 50.9925 42.6263C51.2105 42.5867 51.5077 42.2302 51.5275 42.0123C51.5869 40.9824 51.5275 39.9723 51.5671 38.9423C51.5869 38.368 51.3294 38.2293 50.7944 38.2095C49.3877 38.1501 49.3085 38.0114 49.3085 36.6052C49.3085 35.6941 49.3085 34.7632 49.3085 33.8719C47.1687 33.4361 47.1687 33.4361 46.9706 31.6535C46.9112 31.6139 46.8715 31.5545 46.8121 31.5545C44.8308 31.3961 44.8308 31.3961 44.8308 29.4154C44.8308 28.2864 44.8507 27.1773 44.8308 26.0483C44.811 25.1768 45.128 24.7609 46.0394 24.7807C48.2584 24.8005 50.4576 24.8005 52.6766 24.7807C53.4097 24.7807 53.8059 25.0976 53.8059 25.8304C53.8059 27.3753 53.8257 28.9401 53.8059 30.485C53.8059 31.2574 53.3106 31.5149 52.6172 31.4951C51.9435 31.4753 51.5671 31.1386 51.5671 30.4453C51.5671 30.0888 51.5671 29.7323 51.5671 29.2372C49.8434 29.4748 48.8924 28.8806 49.3283 27.0188C48.5358 27.0188 47.9216 27.0188 47.2083 27.0188C47.2083 27.6724 47.2083 28.3459 47.2083 29.1579C48.7735 28.9599 49.7245 29.4946 49.2689 31.4159C51.0124 31.198 51.9634 31.7724 51.5275 33.654C52.3002 33.654 52.9342 33.654 53.7069 33.654C53.7267 33.2975 53.7465 32.9212 53.7663 32.525C53.7861 31.812 54.1427 31.4357 54.8758 31.4357C55.5891 31.4357 56.0051 31.7526 56.0447 32.4854C56.0646 33.139 56.0646 33.8125 56.0447 34.4661C56.0447 35.7139 55.8862 35.8723 54.6182 35.9119C54.4003 35.9119 54.1625 35.9318 53.905 35.9516C53.8654 36.1892 53.8257 36.3873 53.8257 36.5656C53.8257 38.5462 53.8257 40.5269 53.8257 42.4679C54.539 42.6263 55.3315 42.5669 55.7277 42.9433C56.1042 43.28 56.0447 44.092 56.1834 44.706C56.7382 44.8249 57.5109 44.7853 57.9269 45.1418C58.3034 45.4785 58.2637 46.2707 58.4222 47.0036C58.6204 47.0234 58.9374 47.0828 59.2544 47.063C60.0469 47.0432 60.5026 47.3205 60.5026 48.192C60.5026 49.0635 60.0667 49.3408 59.2742 49.3408C58.2836 49.3209 57.2929 49.3606 56.3023 49.3606C56.2627 49.3606 56.2429 49.3804 56.124 49.42C56.124 50.7866 56.124 52.1731 56.124 53.6586C56.2627 53.6784 56.4608 53.7378 56.6391 53.7378C58.1251 53.7972 58.1647 53.7972 58.2439 55.3025C58.2637 55.8571 58.4817 56.0552 59.0166 56.0354C59.7695 56.0155 60.5422 56.0155 61.2951 56.0354C62.5631 56.0552 62.7018 56.1938 62.7612 57.4416C62.7612 57.6595 62.8008 57.8972 62.8404 58.2537C63.1773 58.2537 63.4943 58.2735 63.8113 58.2537C64.6038 58.1943 64.9604 58.5706 64.9802 59.3628C64.9802 60.1551 64.5839 60.5116 63.8113 60.4918C63.1773 60.472 62.5631 60.4918 61.9291 60.4918C60.6809 60.472 60.5026 60.3136 60.4629 59.0459C60.4629 58.8281 60.4233 58.5904 60.4035 58.3131C58.9572 58.3131 57.5703 58.3131 56.1636 58.3131C56.124 58.3725 56.0646 58.4121 56.0447 58.4716C55.9259 60.4918 55.9259 60.4918 53.8654 60.4918C53.5682 60.4918 53.271 60.5314 52.9738 60.4918C51.9237 60.3532 51.3294 60.6107 51.5077 61.8387C51.6067 62.5319 51.052 62.7299 50.4774 62.7696C49.8632 62.7894 49.3679 62.5913 49.2887 61.8783C49.2292 61.4425 49.2292 60.6899 49.0311 60.6305C48.4763 60.4522 47.8225 60.571 47.1093 60.571C47.1093 61.5812 47.1093 62.4923 47.1093 63.4232C47.1093 64.6314 46.8517 64.9879 45.98 64.9879C45.0686 64.9879 44.8507 64.7106 44.811 63.4826C44.8308 63.2845 44.811 63.0865 44.7912 62.8092ZM53.6672 53.6982C53.6672 51.5195 53.6672 49.3606 53.6672 47.162C51.4879 47.162 49.3679 47.162 47.1885 47.162C47.1885 49.3606 47.1885 51.5195 47.1885 53.6982C49.3679 53.6982 51.468 53.6982 53.6672 53.6982ZM53.7069 56.0552C52.3794 56.0552 51.0916 56.0354 49.8236 56.0948C49.6453 56.0948 49.3481 56.5899 49.3679 56.8276C49.4075 57.303 48.9518 58.1348 49.784 58.2141C51.0718 58.3329 52.3794 58.2537 53.687 58.2537C53.7069 57.4416 53.7069 56.788 53.7069 56.0552Z" fill="#CCD6F6"/>
<path id="Vector_2" d="M6.77096 37.9322C6.77096 36.9221 6.81059 35.9714 6.77096 35.0207C6.73134 34.1492 6.94928 33.6342 7.95972 33.6342C8.91072 33.6342 9.16828 34.1096 9.12866 34.9415C9.10884 35.1989 9.16828 35.4564 9.18809 35.6941C11.1693 36.1497 11.5854 35.7337 11.1693 33.7531C9.22772 33.4362 9.22772 33.4362 8.91072 31.5744C7.00872 31.2178 7.00871 31.2178 6.71153 29.2768C6.49359 29.257 6.27565 29.2372 6.05771 29.2174C4.78971 29.158 4.63121 29.0391 4.6114 27.7715C4.59159 27.0585 4.2944 26.8604 3.64058 26.9C2.80846 26.9396 1.99614 26.9 1.16402 26.9198C0.450764 26.9396 0.113951 26.5633 0.113951 25.9097C0.0941385 23.5923 0.0941385 21.2948 0.0941385 18.9774C0.0941385 18.1455 0.609264 17.9475 1.34233 17.9475C2.07539 17.9475 2.43202 18.2644 2.43202 19.017C2.41221 20.5619 2.45183 22.1267 2.41221 23.6716C2.39239 24.3846 2.61033 24.7015 3.36321 24.6421C3.99721 24.5827 4.69065 24.7609 4.57177 23.731C4.47271 22.8397 4.86896 22.3445 5.80015 22.3841C6.75115 22.4039 6.90965 23.0179 6.90965 23.7904C6.88984 24.7807 6.90965 25.7512 6.90965 26.7416C7.18703 26.801 7.34553 26.8604 7.50403 26.8604C8.98997 26.9991 8.95034 26.9991 9.16828 28.4845C9.20791 28.7024 9.58434 29.0391 9.8221 29.0589C11.2486 29.2174 11.2684 29.1778 11.3278 30.5246C11.3477 31.1188 11.5458 31.3367 12.16 31.3367C13.6855 31.2971 15.1913 31.3169 16.7169 31.3169C17.8264 31.3367 18.0443 31.5744 18.0641 32.6637C18.0641 33.3966 18.1037 34.1294 18.0443 34.8424C17.9849 35.6743 18.3613 35.8724 19.0944 35.8129C19.7482 35.7733 20.3426 35.8526 20.2633 34.8424C20.1841 33.7927 20.5011 33.5748 21.5313 33.5946C22.2446 33.6144 22.5616 33.9907 22.5616 34.6444C22.5814 36.1299 22.5814 37.6153 22.5616 39.1008C22.5616 39.9525 22.1653 40.3684 21.2737 40.3486C20.2633 40.309 19.2331 40.3486 18.2622 40.3486C18.1632 40.4675 18.0839 40.5071 18.0839 40.5665C17.9849 43.0027 17.7075 42.5075 15.7857 42.5472C15.429 42.5472 15.0526 42.5274 14.696 42.5472C13.8639 42.5868 13.4676 42.2501 13.4874 41.3984C13.5072 40.5665 13.844 40.1704 14.7158 40.2892C14.9932 40.3288 15.2904 40.2496 15.647 40.2298C15.6668 39.8535 15.7064 39.5366 15.7064 39.2197C15.7064 38.9028 15.6866 38.5661 15.6668 38.1897C14.9932 38.1897 14.379 38.1897 13.7252 38.1897C13.3685 38.9622 14.0422 40.3684 12.3977 40.3486C10.7929 40.3288 11.4863 38.9622 11.1099 38.1897C10.4957 38.1897 9.88153 38.1897 9.26734 38.1897C9.10884 38.8433 9.12866 39.6158 8.75222 40.0119C8.39559 40.3883 7.6229 40.3288 6.87003 40.5071C6.87003 41.9926 6.87003 43.5573 6.87003 45.1418C6.87003 46.9838 6.77096 47.0828 4.90859 47.0828C3.68021 47.0828 2.47164 47.0828 1.24327 47.0828C0.411139 47.0828 0.0545134 46.6669 0.0545134 45.8548C0.0545134 45.0626 0.450764 44.7259 1.22345 44.7457C2.07539 44.7655 2.94714 44.7061 3.79908 44.7655C4.67084 44.8051 4.55196 44.2307 4.55196 43.7157C4.55196 43.181 4.71046 42.5274 3.79908 42.5472C2.90752 42.567 2.01595 42.5274 1.12439 42.5472C0.351701 42.567 0.0743259 42.151 0.0545134 41.438C0.0347009 40.725 0.331889 40.2892 1.08477 40.2694C1.9367 40.2496 2.80846 40.2892 3.6604 40.2892C4.07646 40.2892 4.49252 40.309 4.57177 39.6554C4.75009 38.1105 4.7699 38.1105 6.37471 37.9917C6.45396 38.0313 6.55303 37.9917 6.77096 37.9322ZM13.4874 33.7135C13.6261 34.4463 13.5865 35.2188 13.9431 35.7535C14.1016 35.9912 15.33 35.9714 15.4489 35.7337C15.746 35.1791 15.6866 34.4265 15.7659 33.7333C14.9337 33.7135 14.3195 33.7135 13.4874 33.7135Z" fill="#CCD6F6"/>
<path id="Vector_3" d="M7.8806 15.8083C6.65223 15.8083 5.44366 15.8083 4.21528 15.8083C1.85759 15.7885 0.114087 14.1644 0.054649 11.8074C-0.00478861 9.23256 -0.00478861 6.65771 0.054649 4.08287C0.0942741 1.72589 1.7189 0.101759 4.07659 0.0423397C6.69185 -0.0170798 9.28729 -0.0170798 11.9025 0.0621462C14.1612 0.121566 15.7462 1.72589 15.8056 4.00364C15.8651 6.59829 15.8651 9.21275 15.8056 11.8272C15.766 14.1248 14.0027 15.7885 11.7242 15.8281C10.4562 15.8281 9.16842 15.8083 7.8806 15.8083ZM7.95985 2.3597C7.16735 2.3597 6.37485 2.33989 5.58235 2.3597C3.83884 2.37951 2.6699 3.25099 2.5114 4.95435C2.33309 6.87558 2.31328 8.85624 2.47178 10.7775C2.63028 12.5997 3.79922 13.4513 5.6616 13.4712C7.20698 13.491 8.77217 13.491 10.3175 13.4712C12.1799 13.4513 13.4281 12.263 13.4876 10.4011C13.547 8.7572 13.5272 7.09346 13.4876 5.44952C13.4281 3.5679 12.1997 2.39931 10.3175 2.3597C9.54486 2.33989 8.75235 2.3597 7.95985 2.3597Z" fill="#CCD6F6"/>
<path id="Vector_4" d="M7.88044 64.9879C6.65206 64.9879 5.4435 64.9879 4.21512 64.9879C1.83761 64.9879 0.153547 63.4826 0.074297 61.1256C-0.0247657 58.4517 -0.0247657 55.7779 0.074297 53.104C0.153547 50.8659 1.73855 49.3606 3.97737 49.3209C6.61244 49.2615 9.26732 49.2615 11.9024 49.3011C14.1214 49.3407 15.7262 50.9055 15.7856 53.104C15.8649 55.8175 15.8649 58.5112 15.7856 61.2247C15.7262 63.3638 13.9629 64.9681 11.8429 64.9879C10.5353 64.9879 9.20788 64.9879 7.88044 64.9879ZM7.95969 62.6507C8.75219 62.6507 9.54469 62.6507 10.3372 62.6309C12.2788 62.5913 13.4478 61.4623 13.5072 59.4817C13.5468 57.8972 13.5468 56.3126 13.5072 54.7281C13.4478 52.7871 12.3383 51.6185 10.4561 51.5393C8.81163 51.4799 7.16719 51.46 5.52275 51.5195C3.75943 51.5789 2.64993 52.4702 2.51124 54.1735C2.35274 56.0948 2.33293 58.0556 2.49143 59.9966C2.63012 61.7396 3.73962 62.5715 5.48312 62.6309C6.29544 62.6705 7.12756 62.6507 7.95969 62.6507Z" fill="#CCD6F6"/>
<path id="Vector_5" d="M64.9802 7.90556C64.9802 9.19298 65 10.4804 64.9802 11.7678C64.9208 14.0654 63.3358 15.7093 61.0375 15.7687C58.4024 15.8282 55.7476 15.8084 53.1125 15.7687C51.2105 15.7291 49.4868 14.204 49.4075 12.3026C49.2887 9.41085 49.2887 6.4993 49.3679 3.58774C49.4274 1.84477 50.834 0.299861 52.5775 0.220635C55.6089 0.0819899 58.6402 0.0621834 61.6715 0.220635C63.5933 0.319668 64.9009 1.96361 64.9604 3.94426C65 5.25149 64.9604 6.57852 64.9802 7.90556ZM57.075 13.491C57.9269 13.491 58.7987 13.5108 59.6506 13.491C61.4139 13.4514 62.6225 12.3422 62.6819 10.6191C62.7612 8.83646 62.781 7.05388 62.7018 5.27129C62.6225 3.42929 61.3941 2.33993 59.5317 2.32012C57.9467 2.32012 56.3617 2.32012 54.7767 2.32012C52.9342 2.33993 51.7454 3.23122 51.6265 5.03362C51.4879 6.97465 51.5077 8.9355 51.6662 10.8567C51.8049 12.5205 52.9342 13.4118 54.5984 13.4712C55.4306 13.5108 56.2627 13.491 57.075 13.491Z" fill="#CCD6F6"/>
<path id="Vector_6" d="M22.4031 8.97511C22.4031 8.26208 22.4031 7.64808 22.4031 6.85582C21.3134 6.85582 20.2435 6.89543 19.1538 6.85582C18.1434 6.8162 17.7669 6.22201 18.0047 5.25149C18.1632 4.55826 18.6783 4.49884 19.233 4.53846C19.9265 4.57807 20.3227 4.38 20.2237 3.60755C20.1246 2.73606 20.4812 2.33993 21.3926 2.33993C22.304 2.33993 22.5219 2.8351 22.5417 3.58774C22.5417 3.84523 22.5616 4.10271 22.5814 4.34039C22.6606 4.41962 22.7201 4.47904 22.7597 4.49884C24.6221 4.73652 24.6815 4.69691 24.6617 2.87471C24.6221 -0.195299 24.6419 0.0819921 27.4553 0.0819921C29.7931 0.0819921 32.1508 0.0819921 34.4887 0.101799C35.7171 0.101799 35.8756 0.260251 35.8954 1.46845C35.9152 2.12206 35.8954 2.79548 35.9152 3.4491C35.935 4.16213 35.6378 4.55826 34.8651 4.59788C34.1123 4.61768 33.6566 4.3602 33.6566 3.52832C33.6566 3.17181 33.617 2.81529 33.5971 2.41916C31.3781 2.41916 29.2384 2.41916 26.9599 2.41916C26.9599 3.36987 26.9599 4.28097 26.9599 5.19207C26.9798 6.67756 26.8411 6.83601 25.3551 6.87562C25.1966 6.87562 25.0381 6.89543 24.7409 6.93504C24.7409 7.84614 24.7409 8.77705 24.7409 9.68815C24.7409 11.1538 24.6221 11.2727 23.1956 11.3321C23.0371 11.3321 22.8786 11.3519 22.5814 11.3717C22.8191 13.0354 22.1455 13.9069 20.3624 13.6098C20.3426 14.0258 20.3029 14.3031 20.3029 14.6002C20.3227 15.3924 19.9859 15.848 19.134 15.848C18.3019 15.848 17.9452 15.432 17.965 14.62C17.9849 13.8871 17.9849 13.1741 17.965 12.4413C17.9452 11.6688 18.3019 11.2331 19.0944 11.3123C19.9067 11.3915 20.3426 11.1934 20.2237 10.2625C20.1246 9.45047 20.5605 9.03453 21.4124 9.07414C21.6898 9.01472 21.987 8.99492 22.4031 8.97511Z" fill="#CCD6F6"/>
<path id="Vector_7" d="M40.3532 24.7213C39.1645 24.7213 38.154 24.7015 37.1436 24.7213C36.2718 24.7411 35.8756 24.3648 35.9152 23.4537C35.9548 22.6614 35.8954 21.8691 35.935 21.0769C35.9747 20.3836 35.6775 20.1064 35.0038 20.1856C34.1717 20.2846 33.6566 19.9875 33.6764 19.0566C33.6764 18.0861 34.2708 17.9276 35.0633 17.9673C35.7567 18.0069 36.4502 17.9276 37.1436 17.9871C37.9361 18.0465 38.2333 17.7692 38.1342 16.9769C38.055 16.2441 38.3522 15.7489 39.1447 15.6895C39.8579 15.6499 40.3928 15.9074 40.3928 16.7393C40.4127 17.5711 40.4919 18.403 40.3532 19.2151C40.2938 19.5716 39.7588 20.1262 39.4815 20.1064C38.3125 20.0073 38.0352 20.5421 38.1937 21.5522C38.2333 21.7701 38.1937 22.0078 38.1937 22.3841C39.5805 22.3841 40.908 22.4039 42.2552 22.3445C42.3939 22.3445 42.6119 21.8493 42.6119 21.572C42.6515 20.0271 42.6515 18.4624 42.6119 16.9175C42.592 16.1054 42.9487 15.6697 43.7808 15.6895C44.5733 15.7093 44.9299 16.1253 44.8507 16.8977C44.7516 17.7098 45.0884 18.0465 45.9205 17.9673C46.8121 17.888 47.1885 18.3436 47.1489 19.2151C47.1291 19.7696 47.1489 20.344 47.1489 20.8986C47.1489 22.186 46.9904 22.3445 45.663 22.4435C45.445 22.4633 45.2073 22.5029 45.0092 22.5227C44.6525 24.4638 44.6525 24.4638 42.6317 24.8203C42.6317 26.6029 42.6119 28.4053 42.6317 30.2077C42.6515 31.0594 42.2156 31.4159 41.4231 31.3961C40.7098 31.3763 40.3532 30.9999 40.373 30.2671C40.373 28.5043 40.3532 26.6821 40.3532 24.7213Z" fill="#CCD6F6"/>
<path id="Vector_8" d="M24.6022 22.6218C21.9077 22.3841 22.5021 22.0672 22.4228 20.1262C22.403 19.4726 22.4228 18.819 22.4228 18.1257C21.5907 17.789 20.1246 18.4823 20.2038 16.7591C20.2831 15.234 21.5511 15.8876 22.3634 15.6103C22.3832 15.3528 22.4426 15.0953 22.4228 14.8379C22.403 14.0456 22.5813 13.491 23.5522 13.4712C24.4833 13.4712 24.8202 13.9466 24.7409 14.7784C24.6617 15.5311 24.9787 15.7886 25.7117 15.7093C26.0683 15.6697 26.425 15.7093 26.7816 15.7093C27.158 14.8379 26.4646 13.4118 28.1487 13.491C29.6742 13.5504 29.0402 14.818 29.3374 15.5509C29.4167 15.6103 29.4563 15.6697 29.5157 15.6697C31.4772 15.9074 31.4772 15.9074 31.497 17.9277C31.497 18.2644 31.4772 18.5813 31.497 18.918C31.5168 19.7499 31.2394 20.2648 30.3082 20.2252C29.4761 20.2054 29.1195 19.7697 29.1987 18.9576C29.2185 18.7001 29.1789 18.4426 29.1591 18.0861C27.7326 18.0861 26.3457 18.0861 24.7805 18.0861C24.7805 18.5615 24.7013 19.0566 24.8202 19.5122C24.8796 19.7895 25.2362 20.146 25.4938 20.1856C26.2467 20.2648 26.9995 20.2054 27.7722 20.2054C29.06 20.2054 29.1987 20.3243 29.2582 21.5919C29.278 21.8097 29.2978 22.0474 29.3572 22.4237C30.3875 22.4237 31.3781 22.4436 32.3885 22.4237C33.2009 22.4039 33.7358 22.6416 33.716 23.5923C33.716 24.543 33.1612 24.7609 32.3687 24.7609C30.3875 24.7411 28.4062 24.7609 26.425 24.7609C24.8598 24.7609 24.7409 24.6421 24.6815 23.0972C24.6418 22.9387 24.622 22.8001 24.6022 22.6218Z" fill="#CCD6F6"/>
<path id="Vector_9" d="M44.9299 9.13354C44.8903 9.292 44.8507 9.41083 44.8309 9.52967C44.712 11.0944 44.712 11.0746 43.2062 11.2925C42.9685 11.3321 42.6317 11.6886 42.6119 11.9263C42.5326 12.8176 42.5722 13.7088 42.592 14.6001C42.6119 15.3924 42.2552 15.7687 41.4825 15.7687C40.7495 15.7687 40.3929 15.432 40.3334 14.6992C40.2938 14.3228 40.2938 13.6692 40.1155 13.6296C39.6004 13.4712 39.006 13.491 38.471 13.59C38.3125 13.6098 38.1937 14.1644 38.1739 14.4813C38.1144 15.2736 37.8767 15.8479 36.9455 15.7885C36.2917 15.7489 35.8954 15.4518 35.8954 14.7388C35.8954 13.8871 35.8756 13.0156 35.8954 12.1639C35.9152 11.5697 35.7765 11.2726 35.0831 11.2528C33.7557 11.233 33.6368 11.0944 33.6368 9.74755C33.6368 6.24179 33.4585 6.81618 36.5096 6.77657C37.9757 6.75676 38.0946 6.89541 38.1144 8.32148C38.1342 9.0147 38.1739 9.70793 38.1144 10.4012C38.0352 11.3519 38.6097 11.2925 39.2437 11.2925C39.8777 11.2925 40.4919 11.3321 40.3532 10.4012C40.2145 9.41083 40.6504 8.95529 41.641 9.07412C42.4137 9.15335 42.6119 8.79683 42.592 8.0838C42.5524 7.25193 42.592 6.43986 42.592 5.60799C42.592 4.91476 42.9289 4.55824 43.6223 4.55824C44.4544 4.55824 45.2667 4.53843 46.0989 4.55824C46.7329 4.57805 47.0697 4.91476 47.0895 5.54857C47.1093 6.20218 47.0895 6.8756 47.0895 7.52922C47.0895 8.83645 46.8914 9.03451 45.6234 9.07412C45.4054 9.07412 45.1677 9.11374 44.9299 9.13354Z" fill="#CCD6F6"/>
<path id="Vector_10" d="M13.6657 44.7853C14.795 44.7853 15.8253 44.8051 16.8754 44.7853C17.6679 44.7655 18.0245 45.1022 18.0443 45.8944C18.0641 46.7065 17.7075 47.1224 16.8754 47.1224C14.6365 47.1224 12.3977 47.1224 10.1589 47.1224C9.38622 47.1224 8.98997 46.7461 8.98997 45.9737C8.98997 45.221 8.98997 44.4486 8.98997 43.6959C8.97015 42.864 9.40603 42.5075 10.2183 42.5471C10.8722 42.5669 11.526 42.5471 12.1996 42.5471C13.3487 42.5471 13.5469 42.765 13.6063 43.9336C13.6063 44.1713 13.6261 44.4089 13.6657 44.7853Z" fill="#CCD6F6"/>
<path id="Vector_11" d="M22.4229 55.8769C22.4229 55.461 22.4229 55.1639 22.4229 54.8668C22.4031 54.0943 22.7597 53.718 23.5522 53.6982C24.3051 53.6982 24.8004 53.9953 24.7211 54.8073C24.6221 55.8175 25.0778 56.0353 25.9693 55.9759C26.6826 55.9165 27.4156 55.9957 28.1487 55.9759C28.8422 55.9561 29.2186 56.2928 29.2384 56.9663C29.2582 57.8179 29.278 58.6894 29.2384 59.5411C29.1988 60.3532 28.644 60.571 27.9308 60.5512C27.2175 60.5512 26.8015 60.0759 26.8807 59.4817C27.0788 58.1943 26.3854 58.1943 25.4542 58.2141C24.0673 58.2537 22.6804 58.2141 21.2936 58.2339C20.5605 58.2339 20.1841 57.9368 20.1643 57.1841C20.1444 56.4513 20.402 55.9759 21.2341 55.9561C21.6106 55.9561 21.9672 55.9165 22.4229 55.8769Z" fill="#CCD6F6"/>
<path id="Vector_12" d="M2.45184 31.4555C2.43202 31.8714 2.41221 32.1883 2.37259 32.5053C2.25371 33.3173 2.51127 33.7531 3.42265 33.6342C4.25478 33.5154 4.67084 33.9313 4.65103 34.7632C4.65103 35.6149 4.15571 35.9516 3.36321 35.8724C2.61034 35.7931 2.25371 36.0506 2.35277 36.8627C2.45184 37.7342 1.99615 38.1897 1.16402 38.1699C0.371518 38.1501 0.0148926 37.6946 0.0148926 36.8825C0.0347051 34.7038 0.0347051 32.5251 0.0148926 30.3661C0.0148926 29.4947 0.371518 29.0787 1.26308 29.1183C2.01596 29.1381 2.76884 29.1381 3.54152 29.1183C4.37365 29.0985 4.63121 29.6135 4.65103 30.3067C4.65103 31 4.33403 31.4357 3.60096 31.4555C3.24434 31.4753 2.88771 31.4555 2.45184 31.4555Z" fill="#CCD6F6"/>
<path id="Vector_13" d="M22.5418 50.3707C22.5418 51.163 22.5616 51.9552 22.5418 52.7475C22.5219 53.52 22.0663 53.8567 21.3134 53.8369C20.6001 53.817 20.1642 53.4803 20.2237 52.7277C20.3029 51.876 20.0652 51.4205 19.0944 51.5393C18.3613 51.6383 17.9849 51.2026 17.9651 50.4896C17.9452 49.6973 17.9452 48.905 17.9651 48.1128C17.9651 47.3799 18.3415 47.0036 19.0547 47.0036C19.8472 46.9838 20.6397 47.0036 21.4323 47.0036C22.2049 47.0036 22.5616 47.4394 22.5616 48.192C22.5418 48.9248 22.5418 49.6577 22.5418 50.3707Z" fill="#CCD6F6"/>
<path id="Vector_14" d="M62.7018 40.3882C61.6121 40.3882 60.6017 40.3882 59.5714 40.3882C58.7591 40.408 58.244 40.1505 58.244 39.1998C58.2638 38.2491 58.7987 38.051 59.611 38.0708C60.6016 38.0906 61.5725 38.0708 62.6423 38.0708C62.6622 37.6747 62.7018 37.3578 62.7018 37.0409C62.7018 36.2883 62.999 35.8525 63.8113 35.8525C64.6434 35.8525 65 36.2288 65 37.0607C64.9802 38.4868 64.9802 39.893 65 41.3191C65 42.0916 64.7821 42.5867 63.8905 42.5867C63.0188 42.5867 62.7216 42.151 62.7216 41.3587C62.7018 41.0616 62.7018 40.7843 62.7018 40.3882Z" fill="#CCD6F6"/>
<path id="Vector_15" d="M62.6622 53.8962C61.8102 53.5991 60.4035 54.1933 60.5026 52.5296C60.6016 51.0639 61.8102 51.7175 62.7414 51.4204C62.7414 50.4895 62.7612 49.4794 62.7414 48.4693C62.7216 47.677 62.8603 47.0828 63.8113 47.0432C64.7028 47.0036 65 47.3601 65 48.4494C65 50.5687 64.9802 52.6682 65 54.7875C65 55.5996 64.7028 56.0551 63.8707 56.0551C63.0188 56.0551 62.7216 55.56 62.7216 54.7875C62.7216 54.4706 62.682 54.1933 62.6622 53.8962Z" fill="#CCD6F6"/>
<path id="Vector_16" d="M28.0497 51.5195C28.8025 51.5195 29.5752 51.5393 30.3281 51.5195C31.1404 51.4997 31.4772 51.8958 31.4772 52.6485C31.4772 53.4011 31.4772 54.1736 31.4772 54.9262C31.4772 55.6987 31.081 56.075 30.3083 56.075C29.5356 56.075 29.0799 55.7383 29.1592 54.946C29.2582 54.0547 28.9016 53.7774 28.0298 53.8567C27.3166 53.9161 26.5835 53.8567 25.8505 53.8765C24.9787 53.8963 24.5825 53.4407 24.6221 52.5891C24.6617 51.7968 25.0976 51.4997 25.8703 51.5393C26.6033 51.5393 27.3364 51.5195 28.0497 51.5195Z" fill="#CCD6F6"/>
<path id="Vector_17" d="M62.7018 31.5545C61.7706 31.2772 60.5224 31.8516 60.5026 30.3463C60.463 28.7618 61.7508 29.2966 62.6424 29.1183C62.6622 28.8212 62.7216 28.5439 62.7018 28.2468C62.682 27.415 62.9594 26.9198 63.8905 26.9396C64.7425 26.9594 65.0001 27.4348 64.9802 28.227C64.9406 29.6135 64.9604 30.9999 64.9802 32.3666C64.9802 33.1192 64.8019 33.654 63.8905 33.6738C62.9594 33.6936 62.7018 33.1589 62.7018 32.3666C62.7018 32.0893 62.7018 31.8318 62.7018 31.5545Z" fill="#CCD6F6"/>
<path id="Vector_18" d="M55.8863 24.7213C55.5495 24.7213 55.2325 24.7213 54.9155 24.7213C54.1428 24.7411 53.7664 24.3449 53.7664 23.5725C53.7664 22.8 54.1428 22.4237 54.9155 22.4435C56.3618 22.4435 57.8081 22.4435 59.2544 22.4435C60.0271 22.4435 60.5224 22.701 60.5026 23.5923C60.4828 24.4638 60.0271 24.7411 59.2346 24.7411C58.9374 24.7411 58.6601 24.7807 58.3827 24.8005C58.0261 25.5928 58.7591 26.9594 57.1345 26.9594C55.5297 26.9198 56.2231 25.573 55.8863 24.7213Z" fill="#CCD6F6"/>
<path id="Vector_19" d="M62.6622 20.0668C62.682 19.8291 62.7216 19.5716 62.7216 19.3141C62.7216 18.5219 62.9396 17.9871 63.9104 18.0069C64.8416 18.0267 65.0001 18.5417 64.9803 19.2943C64.9803 20.6808 64.9604 22.0672 64.9803 23.4339C65.0001 24.2261 64.7029 24.7015 63.8509 24.7015C62.999 24.7213 62.682 24.2459 62.7018 23.4537C62.7018 23.1962 62.682 22.9387 62.6622 22.602C61.9093 22.2059 60.3837 22.9189 60.4828 21.2155C60.5819 19.6904 61.9291 20.4827 62.6622 20.0668Z" fill="#CCD6F6"/>
<path id="Vector_20" d="M40.4523 4.59784C40.4325 4.95435 40.373 5.29107 40.3929 5.60797C40.4325 6.45965 40.0164 6.81617 39.2041 6.81617C38.4116 6.79636 38.1144 6.34081 38.1342 5.58816C38.154 5.093 38.1342 4.59784 38.1342 4.10267C38.1342 2.51815 38.1342 2.49835 39.739 2.37951C40.373 2.3399 40.373 1.96357 40.373 1.50802C40.3532 0.854408 40.3929 0.2206 41.2646 0.101761C42.1165 -0.0170781 42.592 0.379052 42.6119 1.23073C42.6317 1.82493 42.6317 2.41912 42.6317 3.01332C42.6317 4.41958 42.5128 4.51861 41.1259 4.55822C40.8882 4.53842 40.7099 4.57803 40.4523 4.59784Z" fill="#CCD6F6"/>
<path id="Vector_21" d="M13.5666 29.2174C11.2486 29.2174 11.2486 29.2174 11.2486 26.8604C11.2486 26.5633 11.2684 26.2662 11.2486 25.9691C11.1891 25.1174 11.5259 24.6619 12.4175 24.6619C13.3091 24.6619 13.6855 25.1372 13.6063 25.9691C13.5072 26.801 13.8836 27.0188 14.6365 26.9198C15.429 26.8208 15.8054 27.2169 15.8451 27.9894C15.8649 28.8014 15.5083 29.2372 14.6761 29.2372C14.2799 29.2174 13.9233 29.2174 13.5666 29.2174Z" fill="#CCD6F6"/>
<path id="Vector_22" d="M31.3187 13.5504C30.9026 13.5504 30.6054 13.5702 30.3082 13.5504C29.5752 13.5108 29.1591 13.1939 29.1591 12.4016C29.1591 11.6094 29.5157 11.2529 30.2884 11.2529C31.0413 11.2529 31.7942 11.233 32.5471 11.233C33.2405 11.233 33.6764 11.55 33.6566 12.3026C33.6566 13.1147 33.6566 13.9465 33.6566 14.7586C33.6566 15.4518 33.2207 15.7291 32.5867 15.7687C31.9329 15.8083 31.497 15.5509 31.4177 14.8576C31.3583 14.4615 31.3583 14.0456 31.3187 13.5504Z" fill="#CCD6F6"/>
<path id="Vector_23" d="M15.7064 20.2252C15.2309 20.2252 14.9536 20.2054 14.6564 20.2252C13.8837 20.2648 13.5073 19.9281 13.4874 19.116C13.4676 18.3436 13.7846 17.9475 14.5771 17.9673C15.4093 17.9871 16.2216 17.9871 17.0537 17.9871C17.7075 17.9871 18.0245 18.3238 18.0245 18.9576C18.0245 19.7895 18.0245 20.6015 18.0245 21.4334C18.0245 22.186 17.6481 22.5228 16.9348 22.5228C16.2414 22.5426 15.7857 22.2455 15.7263 21.5126C15.6866 21.1363 15.7064 20.7402 15.7064 20.2252Z" fill="#CCD6F6"/>
<path id="Vector_24" d="M24.7608 42.6066C24.7608 43.0621 24.7608 43.3394 24.7608 43.6365C24.8004 44.4486 24.4438 44.8645 23.5918 44.8447C22.7597 44.8249 22.4031 44.4288 22.4229 43.6167C22.4427 42.8244 22.3634 42.0322 22.4823 41.2597C22.5417 40.923 22.9776 40.4477 23.2748 40.3882C24.1862 40.2694 25.0976 40.309 26.0288 40.3288C26.8213 40.3486 26.9798 40.8636 26.9599 41.537C26.9401 42.2303 26.6429 42.5868 25.9495 42.567C25.6127 42.6066 25.2561 42.6066 24.7608 42.6066Z" fill="#CCD6F6"/>
<path id="Vector_25" d="M11.3279 22.4633C11.3279 22.8198 11.3279 23.1962 11.3279 23.5527C11.3477 24.3053 11.0109 24.7213 10.2184 24.7411C9.38624 24.7609 8.98999 24.3846 8.98999 23.5527C8.98999 22.7604 8.98999 21.9682 9.0098 21.1759C9.0098 20.4034 9.44568 20.1658 10.1589 20.1658C10.8722 20.1658 11.3081 20.4034 11.3081 21.1759C11.3081 21.6116 11.3081 22.0474 11.3279 22.4633C11.3279 22.4633 11.3081 22.4633 11.3279 22.4633Z" fill="#CCD6F6"/>
<path id="Vector_26" d="M22.4229 62.7894C22.0662 62.7894 21.6898 62.7894 21.3332 62.7894C20.5605 62.7894 20.2039 62.4131 20.1841 61.6406C20.1642 60.8682 20.5011 60.4522 21.2737 60.4522C22.0861 60.4522 22.9182 60.4324 23.7305 60.472C24.4636 60.4918 24.7607 60.9276 24.7409 61.6406C24.7211 62.3338 24.4239 62.7696 23.6909 62.7894C23.2946 62.7894 22.8587 62.7894 22.4229 62.7894Z" fill="#CCD6F6"/>
<path id="Vector_27" d="M26.9797 64.9879C26.6231 64.9879 26.2467 64.9681 25.89 64.9879C25.0777 65.0275 24.6418 64.671 24.6418 63.8391C24.6418 63.0073 25.0579 62.6309 25.8702 62.6507C26.6033 62.6705 27.3165 62.6705 28.0496 62.6507C28.8817 62.6507 29.2582 63.0469 29.2384 63.8787C29.2185 64.6512 28.8619 65.0473 28.0694 64.9879C27.693 64.9681 27.3364 64.9879 26.9797 64.9879Z" fill="#CCD6F6"/>
<path id="Vector_28" d="M20.2038 26.9C20.2038 26.5435 20.2236 26.1672 20.2038 25.8106C20.184 25.0184 20.5803 24.6619 21.3331 24.6619C22.086 24.6619 22.5021 24.9986 22.5021 25.7908C22.5021 26.5435 22.5219 27.2961 22.5219 28.0686C22.5219 28.841 22.1257 29.2174 21.3728 29.2372C20.6199 29.2372 20.2038 28.8807 20.2038 28.0884C20.2236 27.6923 20.2236 27.2961 20.2038 26.9C20.2236 26.9 20.2236 26.9 20.2038 26.9Z" fill="#CCD6F6"/>
<path id="Vector_29" d="M19.1142 58.2537C19.9265 58.1745 20.3227 58.531 20.3029 59.3826C20.2831 60.1353 19.9463 60.5314 19.1538 60.5512C18.3217 60.571 17.9452 60.1353 17.9254 59.343C17.9254 58.5904 18.2622 58.1546 19.1142 58.2537Z" fill="#CCD6F6"/>
<path id="Vector_30" d="M13.5072 23.5527C13.4676 22.7406 13.8837 22.4039 14.6365 22.4039C15.429 22.4039 15.8649 22.7803 15.8451 23.6121C15.8253 24.3648 15.4687 24.7411 14.6762 24.7609C13.844 24.7411 13.4478 24.3648 13.5072 23.5527Z" fill="#CCD6F6"/>
<path id="Vector_31" d="M19.134 64.9681C18.3216 65.0473 17.9452 64.6512 17.9452 63.8787C17.9254 63.0667 18.3018 62.6507 19.134 62.6507C19.9066 62.6507 20.3029 63.0271 20.3227 63.7995C20.3227 64.572 19.9859 65.0671 19.134 64.9681Z" fill="#CCD6F6"/>
<path id="Vector_32" d="M20.3029 30.3463C20.3029 31.1386 19.867 31.4555 19.1142 31.4753C18.3217 31.4753 17.9056 31.0395 17.9452 30.2473C17.9848 29.4946 18.3613 29.1183 19.134 29.1183C19.9265 29.1183 20.3029 29.4946 20.3029 30.3463Z" fill="#CCD6F6"/>
<path id="Vector_33" d="M19.0944 42.5868C19.9463 42.5075 20.2633 42.9037 20.2831 43.6761C20.3029 44.5278 19.8869 44.8645 19.0944 44.8645C18.2622 44.8645 17.9254 44.409 17.9254 43.6167C17.9452 42.8244 18.3811 42.5075 19.0944 42.5868Z" fill="#CCD6F6"/>
<path id="Vector_34" d="M23.5918 33.6738C22.8389 33.7333 22.4427 33.3767 22.4427 32.5845C22.4229 31.7724 22.7795 31.3565 23.6116 31.3565C24.4041 31.3565 24.7607 31.7328 24.7607 32.5053C24.7409 33.2579 24.4437 33.6936 23.5918 33.6738Z" fill="#CCD6F6"/>
<path id="Vector_35" d="M26.9797 12.4214C27.0194 13.1939 26.5835 13.5702 25.791 13.5702C25.0183 13.5702 24.6418 13.1345 24.6418 12.3818C24.6418 11.6292 25.0183 11.233 25.8108 11.233C26.5637 11.2529 26.9995 11.55 26.9797 12.4214Z" fill="#CCD6F6"/>
<path id="Vector_36" d="M62.7612 45.9736C62.7414 46.7461 62.3451 47.1224 61.5922 47.1026C60.8393 47.0828 60.4827 46.6669 60.4827 45.9142C60.5025 45.122 60.8988 44.8051 61.6517 44.8051C62.4838 44.8051 62.7414 45.2606 62.7612 45.9736Z" fill="#CCD6F6"/>
<path id="Vector_37" d="M19.1142 24.7411C18.3415 24.7609 17.9848 24.3846 17.965 23.5923C17.965 22.8397 18.2622 22.4039 19.0745 22.4039C19.8868 22.4039 20.3029 22.7406 20.2831 23.5923C20.2633 24.3648 19.9067 24.7411 19.1142 24.7411Z" fill="#CCD6F6"/>
<path id="Vector_38" d="M30.2687 6.81622C29.5356 6.79641 29.1393 6.43989 29.1592 5.64763C29.179 4.85537 29.5356 4.51866 30.3281 4.51866C31.1404 4.51866 31.4772 4.9346 31.4574 5.68725C31.4574 6.43989 31.081 6.85583 30.2687 6.81622Z" fill="#CCD6F6"/>
<path id="Vector_39" d="M19.1736 2.35972C18.3811 2.37953 17.965 2.06262 17.965 1.25056C17.965 0.49791 18.2424 0.0621667 19.0547 0.0423602C19.8472 0.0225537 20.3029 0.379071 20.2831 1.21094C20.2831 1.9834 19.9265 2.37953 19.1736 2.35972Z" fill="#CCD6F6"/>
<path id="Vector_40" d="M29.2186 7.92535C29.2186 8.71761 28.8223 9.07412 28.0496 9.07412C27.277 9.07412 26.9005 8.6978 26.9005 7.92535C26.9005 7.11328 27.2968 6.71715 28.1091 6.75676C28.9016 6.79637 29.2384 7.1925 29.2186 7.92535Z" fill="#CCD6F6"/>
<path id="Vector_41" d="M43.7411 33.654C42.9486 33.6738 42.592 33.2975 42.592 32.525C42.592 31.7526 42.9288 31.3763 43.7213 31.3763C44.494 31.3763 44.8506 31.7328 44.8506 32.525C44.8506 33.2975 44.5138 33.6936 43.7411 33.654Z" fill="#CCD6F6"/>
<path id="Vector_42" d="M5.74073 20.2054C4.88879 20.245 4.53217 19.9083 4.53217 19.0962C4.53217 18.304 4.86898 17.9673 5.66148 17.9673C6.43417 17.9673 6.87005 18.2644 6.87005 19.0566C6.87005 19.8093 6.59267 20.344 5.74073 20.2054Z" fill="#CCD6F6"/>
<path id="Vector_43" d="M58.2638 61.6406C58.3034 62.3933 57.9269 62.7696 57.1543 62.7696C56.4014 62.7696 56.0051 62.3933 56.0051 61.6208C56.0249 60.888 56.3419 60.4522 57.1344 60.472C57.9269 60.472 58.3034 60.8087 58.2638 61.6406Z" fill="#CCD6F6"/>
<path id="Vector_44" d="M54.8164 62.7102C55.7278 62.6904 56.0646 63.1261 56.0448 63.8589C56.0448 64.6314 55.6287 64.9681 54.8758 64.9681C54.0635 64.9681 53.7663 64.5324 53.7663 63.7995C53.7465 63.0073 54.1824 62.6904 54.8164 62.7102Z" fill="#CCD6F6"/>
<path id="Vector_45" d="M48.1594 42.567C47.3669 42.6462 47.0499 42.1708 47.0499 41.438C47.0499 40.6655 47.4461 40.3288 48.2188 40.3486C48.9915 40.3684 49.3283 40.7052 49.3283 41.4974C49.3283 42.3095 48.9321 42.6264 48.1594 42.567Z" fill="#CCD6F6"/>
<path id="Vector_46" d="M47.0895 14.62C47.0895 15.3726 46.7131 15.7687 45.9404 15.7687C45.1677 15.7489 44.8309 15.3528 44.8507 14.5803C44.8705 13.8475 45.2073 13.5108 45.9404 13.491C46.7131 13.491 47.0895 13.8475 47.0895 14.62Z" fill="#CCD6F6"/>
<path id="Vector_47" d="M63.7915 62.7102C64.6434 62.7102 65 63.0865 65 63.8787C65 64.6908 64.584 64.9879 63.8311 64.9879C63.0782 64.9879 62.7414 64.5918 62.7414 63.8787C62.7216 63.1261 63.0386 62.6705 63.7915 62.7102Z" fill="#CCD6F6"/>
<path id="Vector_48" d="M58.2439 41.3785C58.2836 42.25 57.9071 42.5867 57.1146 42.5867C56.3023 42.6065 56.0051 42.1906 56.0051 41.438C56.0051 40.6853 56.3618 40.3486 57.0948 40.3486C57.8279 40.3486 58.343 40.5863 58.2439 41.3785Z" fill="#CCD6F6"/>
<path id="Vector_49" d="M51.5473 21.3542C51.5671 22.2257 51.0718 22.4831 50.3387 22.4633C49.5066 22.4633 49.2887 21.9286 49.3085 21.2155C49.3283 20.4431 49.784 20.2054 50.4774 20.2054C51.3095 20.2054 51.5869 20.6609 51.5473 21.3542Z" fill="#CCD6F6"/>
<path id="Vector_50" d="M35.9152 50.3905C35.9747 51.2224 35.5586 51.5195 34.7859 51.5393C33.9934 51.5591 33.6368 51.2026 33.6368 50.4103C33.6368 49.6378 33.9934 49.2615 34.7859 49.2813C35.5388 49.3011 35.9747 49.5982 35.9152 50.3905Z" fill="#CCD6F6"/>
<path id="Vector_51" d="M53.8059 19.1556C53.7861 19.9281 53.3701 20.2252 52.5974 20.2054C51.7653 20.1856 51.5473 19.7102 51.5671 18.9972C51.5671 18.2247 51.9832 18.0069 52.6964 18.0069C53.5088 18.0069 53.8059 18.403 53.8059 19.1556Z" fill="#CCD6F6"/>
<path id="Vector_52" d="M59.3931 18.0267C60.2054 17.9474 60.5026 18.3634 60.5026 19.1358C60.5026 19.9479 60.0667 20.2054 59.3337 20.2054C58.5015 20.2054 58.2638 19.73 58.2638 19.017C58.2638 18.2643 58.66 17.9474 59.3931 18.0267Z" fill="#CCD6F6"/>
<path id="Vector_53" d="M50.4774 51.5195C49.6651 51.5789 49.3283 51.1828 49.3085 50.4103C49.2886 49.6181 49.6453 49.2813 50.4378 49.3011C51.1907 49.3011 51.6067 49.6181 51.5869 50.4103C51.5671 51.163 51.2699 51.5987 50.4774 51.5195Z" fill="#CCD6F6"/>
<path id="Vector_54" d="M7.97953 11.2925C7.52385 11.2925 7.04835 11.3123 6.59266 11.2925C5.46334 11.2528 4.65103 10.5002 4.59159 9.39103C4.53215 8.44032 4.55196 7.4698 4.59159 6.51909C4.65103 5.3505 5.44353 4.57805 6.63228 4.53844C7.52385 4.49882 8.41541 4.49882 9.30698 4.53844C10.4561 4.57805 11.2486 5.3505 11.308 6.53889C11.3477 7.33116 11.3279 8.12342 11.3279 8.91568C11.308 10.52 10.5552 11.2726 8.97016 11.2925C8.63335 11.2726 8.29654 11.2726 7.97953 11.2925C7.97953 11.2925 7.97953 11.2726 7.97953 11.2925Z" fill="#CCD6F6"/>
<path id="Vector_55" d="M4.55198 57.0851C4.55198 56.6494 4.53217 56.2334 4.55198 55.7977C4.61142 54.6291 5.38411 53.7972 6.53323 53.7378C7.46442 53.6982 8.3758 53.6982 9.30699 53.7378C10.4561 53.7972 11.209 54.5499 11.2882 55.6789C11.3477 56.5701 11.3477 57.4614 11.3081 58.3527C11.2684 59.6402 10.4759 60.4522 9.20793 60.5314C8.35599 60.5909 7.48423 60.5909 6.6323 60.5513C5.42373 60.4918 4.61142 59.66 4.53217 58.4716C4.53217 58.016 4.55198 57.5407 4.55198 57.0851Z" fill="#CCD6F6"/>
<path id="Vector_56" d="M60.4828 7.98479C60.4828 8.42053 60.5026 8.83647 60.4828 9.27221C60.3837 10.4408 59.611 11.1934 58.4223 11.2529C57.5901 11.2925 56.7778 11.2925 55.9457 11.2529C54.6777 11.2133 53.8456 10.4408 53.7861 9.15338C53.7465 8.34131 53.7465 7.50944 53.7861 6.67756C53.8456 5.37033 54.6183 4.61769 55.9259 4.55827C56.6589 4.51865 57.3722 4.53846 58.1053 4.53846C59.7299 4.55827 60.4828 5.35053 60.5026 6.99447C60.4828 7.33118 60.4828 7.66789 60.4828 7.98479Z" fill="#CCD6F6"/>
</g>
<path id="Vector_57" d="M32.5669 26.6227C29.2978 26.6227 26.6628 29.257 26.6628 32.525C26.6628 35.7931 29.2978 38.4274 32.5669 38.4274C35.836 38.4274 38.4711 35.7931 38.4711 32.525C38.4711 29.257 35.836 26.6227 32.5669 26.6227ZM35.4595 30.6632L34.4887 35.2187C34.4095 35.5356 34.2312 35.6149 33.9538 35.4762L32.4877 34.3868L31.7744 35.0801C31.6952 35.1593 31.6357 35.2187 31.4772 35.2187L31.5763 33.7134L34.3104 31.2376C34.4293 31.1386 34.2906 31.0792 34.1321 31.1782L30.7442 33.2975L29.278 32.8419C28.961 32.7429 28.961 32.525 29.3375 32.3666L35.0237 30.1681C35.3209 30.0888 35.5586 30.2473 35.4595 30.6632Z" fill="#64FFDA"/>
</g>
</g>
</g>
</svg>
